<?xml version="1.0" encoding="utf-8"?>
<!-- Generator: Adobe Illustrator 23.0.1, SVG Export Plug-In . SVG Version: 6.00 Build 0)  -->
<svg version="1.1" id="Layer_1" xmlns="http://www.w3.org/2000/svg" xmlns:xlink="http://www.w3.org/1999/xlink" x="0px" y="0px"
	 viewBox="0 0 85.1 97.3" style="enable-background:new 0 0 85.1 97.3;" xml:space="preserve">
<style type="text/css">
	.st0{clip-path:url(#SVGID_1_);fill:#FFFFFF;}
</style>
<g>
	<defs>
		<rect id="SVGID_3_" width="85.1" height="97.3"/>
	</defs>
	<clipPath id="SVGID_1_">
		<use xlink:href="#SVGID_3_"  style="overflow:visible;"/>
	</clipPath>
	<path class="st0" d="M70.1,12.2h-2.3V6.1c0-3.4-2.7-6.1-6.1-6.1c-3.4,0-6.1,2.7-6.1,6.1v6.1H31.3V6.1c0-3.4-2.7-6.1-6.1-6.1
		c-3.4,0-6.1,2.7-6.1,6.1v6.1h-2.3c-8.8,0-16,7.2-16,16v2.3H86v-2.3C86,19.3,78.9,12.2,70.1,12.2 M25.2,23.8c-3.3,0-6-2.7-6-6
		c0-0.4,0-0.8,0.1-1.2c0.9,2.3,3.2,4,5.9,4c2.7,0,5-1.7,5.9-4c0.1,0.4,0.1,0.8,0.1,1.2C31.2,21.1,28.5,23.8,25.2,23.8 M61.8,23.8
		c-3.3,0-6-2.7-6-6c0-0.4,0-0.8,0.1-1.2c0.9,2.3,3.2,4,5.9,4c2.7,0,5-1.7,5.9-4c0.1,0.4,0.1,0.8,0.1,1.2
		C67.8,21.1,65.1,23.8,61.8,23.8"/>
	<path class="st0" d="M16.1,36.5H0.9v44.9c0,8.8,7.1,16,15.9,16h53.2c8.8,0,16-7.1,16-16V36.5H70.8H16.1z M10,80.7V45.1h7.3h52.4
		h7.3v35.6c0,4.4-3.6,8-8,8H18C13.6,88.7,10,85.1,10,80.7"/>
	<path class="st0" d="M29.1,65.7c0.4-0.6,0.7-1.3,0.9-2.1c0-0.2,0.1-0.3,0.1-0.5c-0.7,1.4-1.4,2.8-1.8,3.6
		C28.6,66.5,28.8,66.1,29.1,65.7"/>
	<path class="st0" d="M49.6,73.1c-0.7,0.6-1.4,1.1-2.2,1.4c-1,0.4-2.1,0.6-3.1,0.6c-1.1,0-2.1-0.2-3.1-0.6c-1-0.4-1.9-1-2.6-1.8
		c-0.1-0.1-0.2-0.2-0.3-0.3L38,72.5c0.1,0.1,0.2,0.3,0.4,0.4c0.8,0.8,1.7,1.4,2.7,1.8c1,0.4,2.1,0.6,3.2,0.6c2.1,0,4.1-0.8,5.6-2.1
		C49.8,73.1,49.7,73.1,49.6,73.1"/>
	<path class="st0" d="M36.8,63.8c0.4-1,1-1.9,1.8-2.6c0.8-0.7,1.6-1.3,2.6-1.7c1-0.4,2-0.6,3.1-0.6c1,0,2.1,0.2,3.1,0.6
		c1,0.4,1.9,1,2.6,1.7c0.7,0.7,1.3,1.6,1.8,2.6c0,0.1,0.1,0.2,0.1,0.3c0.2,0,0.3-0.1,0.5-0.1c0-0.1-0.1-0.2-0.1-0.4
		c-0.4-1-1-2-1.8-2.8c-0.8-0.8-1.7-1.4-2.8-1.8c-1-0.4-2.2-0.6-3.3-0.6c-1.1,0-2.2,0.2-3.3,0.7c-1,0.4-2,1.1-2.7,1.9
		c-0.8,0.8-1.4,1.7-1.8,2.8c-0.1,0.4-0.3,0.7-0.4,1.1l0.4-0.2C36.6,64.3,36.7,64.1,36.8,63.8"/>
	<path class="st0" d="M31.3,55.7c1.4-1.7,3.1-3.1,5.1-4.2c2-1,4.1-1.7,6.3-1.9c2.2-0.2,4.4,0,6.6,0.6c2.1,0.6,4.1,1.7,5.8,3.1
		c1.7,1.4,3.2,3.2,4.2,5.1c0.9,1.7,1.6,3.7,1.8,5.6l0.2-0.1c-0.3-2-0.9-3.9-1.8-5.7c-1-2-2.5-3.8-4.2-5.3c-1.7-1.5-3.8-2.6-5.9-3.3
		c-2.2-0.7-4.5-0.9-6.7-0.7c-2.3,0.2-4.5,0.9-6.5,2c-2,1.1-3.8,2.5-5.3,4.3c-0.6,0.7-1.1,1.4-1.5,2.1c0.3-0.1,0.5-0.2,0.8-0.2
		C30.5,56.7,30.8,56.2,31.3,55.7"/>
	<path class="st0" d="M57.3,77.2c-1.4,1.7-3.2,3.1-5.2,4.1c-2,1-4.1,1.6-6.3,1.8c-2.2,0.2-4.4-0.1-6.5-0.8c-2.1-0.7-4-1.8-5.6-3.2
		c-3.3-2.8-5.4-6.9-5.8-11.2c0.5-0.4,1-0.8,1.5-1.3c0.8-0.8,1.3-1.8,1.7-2.7c0.4-1,0.5-1.9,0.4-2.8c0-0.3-0.1-0.6-0.2-0.8
		c-0.1-0.3-0.3-0.5-0.5-0.7c-0.4-0.3-0.9-0.5-1.5-0.4c-0.1,0-0.2,0-0.3,0.1c-0.3,0.1-0.6,0.2-0.9,0.5c0,0,0,0,0,0
		c-0.4,0.3-0.8,0.7-1.2,1.2c-0.4,0.5-0.7,1-1,1.6c-0.1,0.2-0.1,0.3-0.2,0.5c-0.2,0.4-0.3,0.8-0.4,1.1c-0.1-0.6-0.1-1.2-0.2-1.8
		c-0.1-0.5-0.1-1-0.2-1.4l-0.1-0.4l-0.2,0.1c-0.4,0.3-0.6,0.4-1,0.7l-0.1,0.1l0.1,0.3c0,0.1,0,0.2,0.1,0.2c0,0.1,0,0.2,0.1,0.3
		c0.4,1.8,0.4,3.6,0.4,5.4c0,1.8,0,3.7,0,5.5l0,0.2l0.2,0c0.3-0.1,0.5-0.1,0.9-0.2l0.1,0l0-0.1c0-1.9,0-2.8,0-4.7
		c0-1,0.1-1.9,0.2-2.6c0.1-0.4,0.2-0.9,0.3-1.3c0.1-0.3,0.2-0.6,0.3-0.9c0.2-0.6,0.5-1.2,0.8-1.7c0.1-0.2,0.3-0.4,0.5-0.6
		c0.2-0.2,0.3-0.4,0.5-0.5c0.2-0.2,0.4-0.3,0.6-0.4c0.1,0,0.2-0.1,0.3-0.1c0.3-0.1,0.6,0,0.8,0.2c0.2,0.2,0.4,0.5,0.4,0.9
		c0.1,0.5,0.1,1.1,0,1.7c0,0.2-0.1,0.3-0.1,0.5c-0.2,0.8-0.5,1.5-0.9,2.1c-0.2,0.4-0.5,0.7-0.8,1c-0.1,0.1-0.3,0.3-0.4,0.4
		c-0.1,0.1-0.2,0.2-0.3,0.2c-0.4,0.3-0.7,0.5-1.1,0.6c0,0-0.1,0-0.1,0.1c-0.2,0.1-0.3,0.1-0.5,0.1c-0.1,0-0.1,0-0.2,0l-0.3,0
		l0.1,0.2c0.2,0.4,0.7,0.3,1,0.2c0.1,1,0.3,1.9,0.6,2.8c0.3,1.1,0.8,2.2,1.3,3.2c1.1,2.1,2.6,3.9,4.4,5.3c1.8,1.5,3.9,2.5,6.1,3.2
		c2.2,0.7,4.6,0.9,6.8,0.6c2.3-0.3,4.5-0.9,6.5-2c2-1.1,3.8-2.6,5.2-4.4c0.8-1,1.5-2.1,2.1-3.3l-0.5,0.1
		C58.7,75.3,58,76.3,57.3,77.2"/>
	<path class="st0" d="M68.9,55.3C68.8,55.3,68.8,55.3,68.9,55.3c-1,0.4-2.4,2.2-2.9,7.7c-0.2,2.9,0.9,4.8,1.1,5.8
		c0.5,1.8-1.1,6-1.5,8c-0.3,1.6,1.3,1.3,1.3,1.3c0.5-0.1,0.9-0.5,0.9-1.1l1.8-21C69.7,55.5,69.3,55.2,68.9,55.3"/>
	<path class="st0" d="M21,64.6c1.1-0.6,1.5-0.6,1.3-2.6c-0.2-1.6-0.7-4.5-1.2-6.1c0-0.1-0.1-0.1-0.1-0.1l0,0c-0.1,0-0.1,0.1-0.1,0.1
		l0.7,6.6c0,0.1-0.1,0.2-0.2,0.2l-0.3,0c-0.1,0-0.1,0-0.1-0.1L20.1,56c0-0.1-0.1-0.1-0.1-0.1l-0.1,0c-0.1,0-0.1,0.1-0.1,0.1l0.6,6.7
		c0,0.1,0,0.1-0.1,0.1l-0.3,0c-0.1,0-0.1,0-0.1-0.1L19,56.1c0-0.1-0.1-0.1-0.1-0.1l-0.1,0c-0.1,0-0.1,0.1-0.1,0.1l0.6,6.7
		c0,0.1-0.1,0.1-0.1,0.2l-0.3,0c-0.1,0-0.2-0.1-0.2-0.1l-0.8-6.6c0-0.1-0.1-0.1-0.1-0.1l-0.1,0c-0.1,0-0.1,0.1-0.1,0.1
		c-0.1,1.7,0,4.7,0.2,6.2c0.2,2,0.6,1.9,1.8,2.2l0.9,12.2c0.1,0.6,0.5,1,1.1,1v0c0.1,0,0.1,0,0.2,0c0.6-0.1,1-0.6,0.9-1.3L21,64.6z"
		/>
	<polygon class="st0" points="35.9,54.7 33.4,56.8 33.9,57.5 34.8,56.7 36.9,59.1 37.6,58.5 35.5,56.1 36.4,55.3 	"/>
	<path class="st0" d="M41.2,56.5l0.8-0.3l-3.1-3.1l-0.7,0.3l0,4.4l0.8-0.3l0-1l1.6-0.6L41.2,56.5z M39,55.6l0-1.4l1,1L39,55.6z"/>
	<path class="st0" d="M44.5,55.4c-0.1,0.1-0.2,0.1-0.4,0.1c-0.2,0-0.4,0-0.6-0.1c-0.2-0.1-0.4-0.2-0.6-0.3l-0.5,0.6
		c0.2,0.2,0.5,0.4,0.8,0.5c0.3,0.1,0.6,0.1,0.9,0.1c0.2,0,0.4,0,0.6-0.1c0.2-0.1,0.3-0.1,0.5-0.2c0.1-0.1,0.2-0.2,0.3-0.4
		c0.1-0.2,0.1-0.3,0.1-0.5v0c0-0.2,0-0.3-0.1-0.4c-0.1-0.1-0.1-0.2-0.3-0.3C45,54.1,44.9,54,44.7,54c-0.2-0.1-0.3-0.1-0.5-0.2
		c-0.2,0-0.3-0.1-0.4-0.1c-0.1,0-0.2-0.1-0.3-0.1c-0.1,0-0.1-0.1-0.1-0.1c0,0,0-0.1,0-0.2v0c0-0.1,0-0.2,0.1-0.3
		c0.1-0.1,0.2-0.1,0.4-0.1c0.2,0,0.3,0,0.5,0.1c0.2,0.1,0.3,0.2,0.5,0.3l0.4-0.7c-0.2-0.2-0.4-0.3-0.7-0.4c-0.2-0.1-0.5-0.1-0.8-0.1
		c-0.2,0-0.4,0-0.6,0.1c-0.2,0.1-0.3,0.1-0.4,0.3c-0.1,0.1-0.2,0.2-0.3,0.4c-0.1,0.1-0.1,0.3-0.1,0.5v0c0,0.2,0,0.4,0.1,0.5
		c0.1,0.1,0.2,0.2,0.3,0.3c0.1,0.1,0.3,0.2,0.4,0.2c0.2,0.1,0.3,0.1,0.6,0.2c0.2,0,0.3,0.1,0.4,0.1c0.1,0,0.2,0.1,0.2,0.1
		c0.1,0,0.1,0.1,0.1,0.1c0,0,0,0.1,0,0.1v0C44.6,55.2,44.6,55.3,44.5,55.4"/>
	<polygon class="st0" points="47.1,56.6 47.9,53.5 49.1,53.8 49.3,53.1 46.1,52.2 45.9,53 47.1,53.3 46.3,56.4 	"/>
	<polygon class="st0" points="53,55.1 50.4,53.5 48.4,56.9 51,58.5 51.4,57.8 49.5,56.7 50,56 51.6,56.9 52,56.3 50.4,55.3 
		50.8,54.6 52.6,55.7 	"/>
	<path class="st0" d="M64.9,70.9c-0.6,0.5-0.8,0.5-0.9,0.5c0,0-0.1,0-0.1-0.1c0-0.1-0.1-0.2,0-0.4c0-0.2,0.1-0.5,0.2-0.8l0.1-0.4
		c0.2-0.4,0.2-0.7,0.4-1.1l0.1-0.4c0.1-0.3,0.2-0.5,0.2-0.6c0-0.3,0-0.6-0.2-0.8c-0.2-0.2-0.4-0.3-0.7-0.4c-0.4,0-0.9,0.1-1.4,0.5
		c-0.1,0.1-0.2,0.2-0.3,0.3c-0.3,0.3-0.6,0.6-1,1.1c0,0.1-0.1,0.1-0.1,0.2c0.1-0.2,0.1-0.3,0.2-0.5c0.2-0.5,0.3-1,0.6-1.6l0.1-0.3
		l-0.3,0.1c-0.1,0-0.2,0.1-0.3,0.1c-0.1,0-0.2,0-0.2,0.1c-0.1,0-0.3,0.1-0.5,0.1l-0.1,0l0,0.1c-0.3,1.2-0.7,2.4-1.1,3.8
		c-0.2,0.1-0.3,0.2-0.4,0.3c-0.2,0.2-0.3,0.2-0.4,0.2c0,0-0.1,0-0.1-0.1c-0.1-0.1-0.1-0.2-0.1-0.4c0-0.2,0.1-0.5,0.2-0.8
		c0.5-1.4,0.7-2,1.2-3.3l0.1-0.3l0,0l0,0l-0.3,0.1c-0.4,0.1-0.6,0.2-0.9,0.3l-0.1,0l-0.1,0.1c-0.3-0.3-0.6-0.4-1-0.4
		c-0.5,0-1.1,0.2-1.7,0.6c-0.6,0.4-1,0.9-1.4,1.6c-0.1,0.1-0.1,0.2-0.2,0.3c-0.3,0.5-0.4,1.1-0.5,1.6c0,0.1,0,0.2,0,0.3
		c-0.2,0.2-0.4,0.2-0.4,0.2c0,0-0.1,0-0.1-0.1c-0.1-0.1-0.1-0.2-0.1-0.4c0-0.1,0.1-0.5,0.2-1.1c0.2-0.8,0.5-1.7,0.7-2.5
		c0.8-2.7,1.6-5.4,2.4-8.1l0.1-0.3L56.5,58c-0.5,0.2-0.7,0.2-1.1,0.4l-0.1,0l0,0.1c-0.5,1.9-1,3.7-1.5,5.6c-0.1,0.6-0.3,1.2-0.4,1.7
		c-0.2-0.1-0.4-0.2-0.7-0.2c-0.1,0-0.2,0-0.3,0c-0.1,0-0.1,0-0.2,0c-0.5,0-1,0.2-1.5,0.6c-0.5,0.4-1,0.9-1.3,1.5c0,0,0,0,0,0.1
		c-0.4,0.6-0.5,1.3-0.5,2c0,0.1,0,0.2,0,0.4c-0.3,0.2-0.4,0.2-0.4,0.2c0,0-0.1,0-0.2-0.1c-0.1-0.1-0.1-0.2-0.1-0.4
		c0-0.2,0-0.5,0.1-0.8c0.4-1.4,0.6-2.1,0.9-3.4l0.1-0.3L49,65.4c-0.4,0.1-0.6,0.2-0.9,0.4l-0.1,0l0,0.1c-0.3-0.2-0.6-0.4-1.1-0.4h0
		c-0.5,0-1.1,0.2-1.6,0.7c-0.5,0.4-1,1-1.3,1.7c-0.3,0.7-0.5,1.3-0.5,1.9c0,0.1,0,0.2,0,0.4c-0.3,0.2-0.4,0.3-0.4,0.3
		c0,0-0.1,0-0.1-0.1c-0.1-0.1-0.1-0.2-0.1-0.4c0-0.2,0-0.5,0.1-0.8l0.1-0.4c0.1-0.5,0.2-0.7,0.3-1.2c0.1-0.5,0.2-0.9,0.2-1.1
		c0-0.3-0.1-0.5-0.3-0.7c-0.2-0.2-0.4-0.2-0.7-0.2c-0.5,0-1,0.3-1.4,0.8c-0.3,0.3-0.6,0.8-0.9,1.5c0-0.1,0-0.1,0-0.2
		c0.1-0.5,0.1-0.8,0.1-1c0-0.3-0.1-0.6-0.3-0.7c-0.2-0.1-0.4-0.2-0.7-0.2c-0.4,0-0.8,0.3-1.3,0.7c-0.1,0.1-0.2,0.2-0.3,0.4
		c-0.3,0.3-0.5,0.7-0.8,1.2c0.1-0.6,0.2-1.2,0.4-2l0.1-0.3l-0.3,0.2c-0.4,0.2-0.5,0.3-0.9,0.4l0,0l-0.1,0l0,0.1
		c-0.1,0.5-0.1,1-0.2,1.6c-0.1,0.7-0.2,1.5-0.3,2.3c-0.5,0.5-0.6,0.6-0.7,0.6c0,0-0.1,0-0.2-0.1c-0.1-0.1-0.1-0.2-0.1-0.4
		c0-0.2,0-0.5,0.1-0.8c0.2-1.4,0.4-2.1,0.6-3.5l0.1-0.3l-0.3,0.2c-0.4,0.2-0.5,0.3-0.9,0.4l-0.1,0l0,0.1c-0.1-0.1-0.3-0.2-0.4-0.2
		c-0.2-0.1-0.4-0.1-0.7-0.1c-0.5,0-1,0.3-1.5,0.8c-0.5,0.5-0.9,1.1-1.1,1.8c-0.3,0.7-0.4,1.4-0.3,2c0.1,0.5,0.2,0.8,0.5,1.1
		c0.3,0.3,0.6,0.4,1,0.3c0.6-0.1,1.3-0.6,1.9-1.5c0.1-0.2,0.2-0.4,0.3-0.5c0,0,0,0,0,0c0,0.1,0,0.2,0,0.3c0,0.1,0,0.1,0,0.2
		c0,0,0,0,0,0.1c0,0.3,0.1,0.6,0.3,0.8c0.2,0.2,0.4,0.4,0.7,0.3c0.2,0,0.4-0.1,0.6-0.3c0.1-0.1,0.1-0.1,0.2-0.2c0,0.1,0,0.2,0,0.3
		l0,0.3l0.3-0.1c0.2-0.1,0.3-0.1,0.6-0.2l0.1,0l0-0.1c0.1-0.4,0.1-0.7,0.2-1c0-0.1,0-0.2,0.1-0.2c0,0,0-0.1,0-0.1
		c0.1-0.3,0.2-0.6,0.3-0.9c0.1-0.3,0.3-0.7,0.5-1c0.2-0.4,0.4-0.7,0.7-1c0.1-0.1,0.1-0.2,0.2-0.2c0.3-0.3,0.5-0.4,0.6-0.4
		c0.1,0,0.1,0,0.1,0c0,0,0.1,0.1,0.1,0.2c0,0.1,0,0.2,0,0.4l-0.1,0.3c-0.2,1.2-0.3,1.9-0.4,2.8c0,0.3-0.1,0.7-0.1,1.1l0,0.3l0.3-0.1
		c0,0,0.1,0,0.1,0c0.2-0.1,0.3-0.1,0.5-0.2l0.1,0l0-0.1c0.1-0.7,0.3-1.2,0.5-1.7c0.2-0.5,0.4-1,0.7-1.5c0.2-0.4,0.4-0.7,0.6-0.9
		c0.2-0.2,0.3-0.4,0.5-0.5c0.1-0.1,0.3-0.2,0.4-0.2c0.1,0,0.1,0,0.2,0c0,0,0.1,0.1,0.1,0.1c0,0.1,0,0.2,0,0.4l0,0.3
		c-0.1,0.8-0.2,1.2-0.3,1.9c-0.1,0.4-0.1,0.7-0.1,0.9c0,0.3,0.1,0.6,0.3,0.8c0.2,0.2,0.4,0.4,0.7,0.4c0.2,0,0.4-0.1,0.6-0.3
		c0.1-0.1,0.2-0.2,0.3-0.3c0,0.1,0.1,0.1,0.1,0.2c0.2,0.3,0.6,0.4,1,0.4c0.7,0,1.3-0.4,2-1.3c0.1-0.2,0.3-0.4,0.4-0.5
		c0,0.3-0.1,0.5-0.1,0.6c0,0.3,0.1,0.6,0.3,0.8c0.2,0.3,0.4,0.4,0.7,0.4h0c0.2,0,0.4-0.1,0.6-0.3c0,0,0.1-0.1,0.1-0.1
		c0.1-0.1,0.2-0.1,0.2-0.2c0,0.1,0.1,0.1,0.1,0.2c0.2,0.3,0.6,0.5,1,0.5c0.4,0,0.8-0.1,1.2-0.4c0.2-0.2,0.5-0.4,0.8-0.7
		c0,0,0.1-0.1,0.1-0.1c0.1-0.1,0.2-0.2,0.3-0.4c0,0.2,0,0.3-0.1,0.4c0,0.3,0.1,0.6,0.2,0.8c0.2,0.3,0.4,0.4,0.7,0.4
		c0.1,0,0.2,0,0.3-0.1c0.1,0,0.2-0.1,0.4-0.3l0.1-0.1l0.1-0.1c0,0.1,0.1,0.1,0.1,0.2c0.2,0.3,0.6,0.5,1,0.5c0.7,0,1.3-0.3,2.1-1.2
		c0.2-0.2,0.3-0.3,0.4-0.5c-0.1,0.3-0.1,0.5-0.1,0.6c0,0.3,0,0.6,0.2,0.8c0.2,0.3,0.4,0.4,0.6,0.4c0.2,0,0.4-0.1,0.6-0.2
		c0,0,0,0,0,0c0.1-0.1,0.2-0.1,0.3-0.2c0,0.1-0.1,0.2-0.1,0.3L59.2,72l0.3-0.1c0.3-0.1,0.4-0.1,0.6-0.1l0.1,0l0.1-0.3
		c0.2-0.4,0.3-0.7,0.5-1c0.1-0.3,0.3-0.5,0.4-0.7c0,0,0-0.1,0.1-0.1c0.2-0.4,0.5-0.7,0.8-1.1c0.2-0.2,0.3-0.4,0.5-0.5
		c0.6-0.6,1-0.7,1.2-0.7c0.1,0,0.1,0,0.2,0.1c0,0,0,0.1,0,0.2c0,0.1-0.1,0.3-0.1,0.6c-0.2,0.8-0.4,1.2-0.6,1.9
		C63,70.5,63,70.8,62.9,71c0,0.3,0,0.6,0.1,0.9c0.1,0.3,0.3,0.4,0.6,0.4c0,0,0,0,0.1,0c0.2,0,0.4-0.1,0.5-0.2
		c0.2-0.1,0.5-0.4,0.9-0.8l0.2-0.2l-0.4-0.4L64.9,70.9z M50.5,70.6L50.5,70.6c-0.2,0-0.3-0.1-0.4-0.2c-0.1-0.2-0.2-0.4-0.2-0.6
		c0-0.3,0.1-0.7,0.2-1.1c0.1-0.4,0.3-0.8,0.5-1.1c0.3-0.4,0.6-0.8,0.9-1c0.2-0.2,0.5-0.3,0.7-0.3c0,0,0.1,0,0.1,0c0,0,0,0,0,0
		c0.1,0,0.2,0,0.3,0.1c0.1,0,0.1,0,0.2,0.1c0.1,0.1,0.2,0.2,0.3,0.3L53,67.1c-0.1,0.2-0.2,0.6-0.4,1.1c0,0.1,0,0.1-0.1,0.2
		c-0.1,0.3-0.3,0.6-0.5,0.9c-0.1,0.1-0.2,0.3-0.3,0.4c-0.2,0.3-0.4,0.5-0.6,0.7C51,70.5,50.7,70.6,50.5,70.6 M56.4,70.5
		c-0.3,0.2-0.6,0.3-0.8,0.3c-0.2,0-0.3-0.1-0.4-0.2c-0.1-0.2-0.1-0.4-0.1-0.7c0-0.3,0.1-0.6,0.2-1c0.2-0.4,0.3-0.8,0.6-1.1
		c0.3-0.4,0.6-0.7,0.9-1c0.3-0.2,0.5-0.3,0.8-0.3c0,0,0,0,0.1,0c0.2,0,0.4,0.1,0.5,0.2c0.1,0.1,0.2,0.3,0.3,0.4l-0.1,0.3
		c-0.2,0.5-0.3,0.9-0.4,1.2c-0.1,0.3-0.3,0.5-0.5,0.8C57.1,69.9,56.7,70.2,56.4,70.5 M46,70.2c-0.3,0.2-0.5,0.4-0.8,0.4h0
		c-0.2,0-0.3-0.1-0.4-0.2c-0.1-0.1-0.2-0.4-0.2-0.6c0-0.3,0.1-0.6,0.2-1c0.1-0.4,0.3-0.8,0.5-1.2c0.2-0.4,0.5-0.8,0.8-1
		c0.3-0.2,0.5-0.3,0.8-0.3h0c0.2,0,0.4,0.1,0.5,0.2c0.1,0.1,0.2,0.2,0.3,0.4l-0.1,0.3c-0.1,0.5-0.3,0.9-0.4,1.2
		c-0.1,0.3-0.2,0.6-0.4,0.8C46.6,69.6,46.3,69.9,46,70.2 M31.4,71.2c-0.1-0.1-0.2-0.4-0.2-0.6c0-0.3,0-0.6,0.1-1
		c0.1-0.4,0.2-0.8,0.4-1.2c0.2-0.4,0.4-0.8,0.7-1.1c0.3-0.3,0.5-0.4,0.8-0.4c0,0,0.1,0,0.1,0c0.2,0,0.3,0,0.4,0.1c0,0,0.1,0,0.1,0.1
		c0.1,0.1,0.2,0.2,0.3,0.3l0,0.3c-0.1,0.4-0.2,0.8-0.2,1.1c0,0,0,0.1,0,0.1c-0.1,0.3-0.2,0.6-0.4,0.9c-0.3,0.5-0.5,0.9-0.8,1.2
		c-0.3,0.3-0.5,0.4-0.8,0.4C31.6,71.4,31.5,71.3,31.4,71.2"/>
	<path class="st0" d="M32.1,74c0-0.1-0.1-0.1-0.1-0.2c0-0.1,0-0.2,0-0.3l0.2,0c0,0.1,0,0.1,0,0.2c0,0.1,0,0.1,0.1,0.2
		c0,0,0.1,0.1,0.1,0.1c0,0,0.1,0,0.1,0l0,0c0,0,0,0,0,0c0,0,0,0,0-0.1c0,0,0-0.1,0-0.1c0,0,0-0.1,0-0.1c0,0,0-0.1,0-0.1
		c0,0,0-0.1,0-0.1s0-0.1,0-0.1c0,0,0.1-0.1,0.1-0.1l0,0c0,0,0.1,0,0.1,0c0,0,0.1,0,0.1,0c0,0,0.1,0,0.1,0.1c0,0,0.1,0.1,0.1,0.1
		c0,0.1,0.1,0.1,0.1,0.2c0,0.1,0,0.1,0,0.2l-0.2,0c0-0.1,0-0.1,0-0.2c0-0.1,0-0.1-0.1-0.1c0,0-0.1-0.1-0.1-0.1c0,0-0.1,0-0.1,0l0,0
		c0,0,0,0,0,0c0,0,0,0,0,0.1c0,0,0,0.1,0,0.1c0,0,0,0.1,0,0.1c0,0,0,0.1,0,0.1c0,0,0,0.1,0,0.1c0,0,0,0.1,0,0.1c0,0,0,0.1-0.1,0.1
		l0,0c-0.1,0-0.1,0-0.1,0.1c0,0-0.1,0-0.1,0c0,0-0.1,0-0.1-0.1C32.1,74.1,32.1,74.1,32.1,74"/>
	<path class="st0" d="M33.7,73.7l0.2,0.2l-0.5,0.4c0,0,0.1,0,0.1,0c0,0,0.1,0,0.1,0c0,0,0.1,0,0.1,0.1c0,0,0.1,0,0.1,0.1
		c0.1,0.1,0.1,0.2,0.1,0.3c0,0.1-0.1,0.2-0.2,0.3l-0.6,0.4l-0.2-0.2l0.5-0.4c0.1-0.1,0.1-0.1,0.1-0.2c0-0.1,0-0.1,0-0.2
		c0-0.1-0.1-0.1-0.2-0.1c-0.1,0-0.1,0-0.2,0.1l-0.5,0.4l-0.2-0.2L33.7,73.7z"/>
	<path class="st0" d="M33.7,76.2l0.1-0.1c-0.1,0-0.1,0-0.2,0c-0.1,0-0.1-0.1-0.2-0.1c0,0-0.1-0.1-0.1-0.1c0,0,0-0.1,0-0.1
		c0,0,0-0.1,0-0.1c0,0,0-0.1,0.1-0.1l0,0c0,0,0.1-0.1,0.1-0.1c0.1,0,0.1,0,0.1,0c0,0,0.1,0,0.1,0.1c0,0,0.1,0.1,0.1,0.1
		c0,0.1,0.1,0.1,0.1,0.1c0,0,0,0.1,0.1,0.1l0,0c0.1-0.1,0.1-0.1,0.1-0.2c0-0.1,0-0.1-0.1-0.2c0,0-0.1-0.1-0.1-0.1
		c0,0-0.1-0.1-0.1-0.1l0.1-0.2c0.1,0,0.1,0.1,0.2,0.1c0.1,0,0.1,0.1,0.2,0.2c0.1,0.1,0.2,0.2,0.2,0.4c0,0.1-0.1,0.2-0.2,0.3
		l-0.5,0.4L33.7,76.2z M34.1,75.9c0,0,0-0.1-0.1-0.1c0,0-0.1-0.1-0.1-0.1c-0.1-0.1-0.1-0.1-0.2-0.1s-0.1,0-0.1,0l0,0
		c0,0-0.1,0.1-0.1,0.1c0,0.1,0,0.1,0.1,0.1c0,0,0.1,0.1,0.1,0.1s0.1,0,0.1,0c0,0,0.1,0,0.1,0S34,75.9,34.1,75.9L34.1,75.9z"/>
	<path class="st0" d="M34.9,75.8l0.2,0.2l-0.2,0.2c0.1,0,0.2-0.1,0.2,0c0.1,0,0.2,0,0.2,0.1l-0.2,0.2l0,0c0,0-0.1-0.1-0.1-0.1
		c0,0-0.1,0-0.1,0c0,0-0.1,0-0.2,0c-0.1,0-0.1,0.1-0.2,0.1l-0.3,0.3l-0.2-0.2L34.9,75.8z"/>
	<path class="st0" d="M35.2,77.5c-0.1-0.1-0.1-0.1-0.1-0.2c0-0.1-0.1-0.1-0.1-0.2c0-0.1,0-0.1,0-0.2c0-0.1,0.1-0.1,0.1-0.2l0,0
		c0-0.1,0.1-0.1,0.2-0.1c0.1,0,0.1-0.1,0.2-0.1c0.1,0,0.1,0,0.2,0c0.1,0,0.1,0.1,0.2,0.1c0.1,0.1,0.1,0.1,0.2,0.2c0,0.1,0,0.1,0,0.2
		c0,0.1,0,0.1,0,0.2c0,0.1-0.1,0.1-0.1,0.2c0,0,0,0,0,0c0,0,0,0,0,0l-0.6-0.5c0,0.1-0.1,0.2,0,0.2c0,0.1,0.1,0.1,0.1,0.2
		c0,0,0.1,0.1,0.1,0.1c0.1,0,0.1,0,0.2,0l0,0.2c-0.1,0-0.2,0-0.2,0C35.3,77.6,35.2,77.6,35.2,77.5 M35.8,77.2c0,0,0-0.1,0.1-0.1
		c0,0,0-0.1,0-0.1c0,0,0-0.1,0-0.1c0,0,0-0.1-0.1-0.1c-0.1,0-0.1-0.1-0.2-0.1c-0.1,0-0.1,0-0.2,0.1L35.8,77.2z"/>
	<path class="st0" d="M36.8,77.6l-0.1-0.1l0.1-0.2l0.1,0.1l0-0.1c0.1-0.1,0.1-0.2,0.2-0.2c0.1,0,0.2,0,0.3,0.1c0,0,0.1,0,0.1,0.1
		c0,0,0,0,0.1,0.1l-0.1,0.2c0,0,0,0-0.1-0.1c0,0,0,0-0.1,0c-0.1-0.1-0.2,0-0.2,0.1l0,0.1l0.2,0.2l-0.1,0.2L37,77.7l-0.5,0.8
		l-0.2-0.1L36.8,77.6z"/>
	<path class="st0" d="M37.4,79c-0.1,0-0.1-0.1-0.2-0.2c-0.1-0.1-0.1-0.1-0.1-0.2c0-0.1,0-0.1,0-0.2c0-0.1,0-0.1,0.1-0.2l0,0
		c0-0.1,0.1-0.1,0.1-0.2c0.1,0,0.1-0.1,0.2-0.1c0.1,0,0.1,0,0.2,0c0.1,0,0.2,0,0.2,0.1c0.1,0,0.1,0.1,0.2,0.2c0,0.1,0.1,0.1,0.1,0.2
		c0,0.1,0,0.1,0,0.2c0,0.1,0,0.1-0.1,0.2l0,0c0,0.1-0.1,0.1-0.1,0.2c-0.1,0-0.1,0.1-0.2,0.1c-0.1,0-0.1,0-0.2,0
		C37.6,79.1,37.5,79.1,37.4,79 M37.5,78.8c0,0,0.1,0,0.1,0c0,0,0.1,0,0.1,0c0,0,0.1,0,0.1-0.1c0,0,0.1-0.1,0.1-0.1l0,0
		c0,0,0-0.1,0-0.1c0,0,0-0.1,0-0.1c0,0,0-0.1-0.1-0.1c0,0-0.1-0.1-0.1-0.1c0,0-0.1,0-0.1,0c0,0-0.1,0-0.1,0s-0.1,0-0.1,0.1
		c0,0-0.1,0.1-0.1,0.1l0,0c0,0,0,0.1,0,0.1c0,0,0,0.1,0,0.1c0,0,0,0.1,0.1,0.1C37.4,78.8,37.5,78.8,37.5,78.8"/>
	<path class="st0" d="M38.7,79.6c-0.1,0-0.1-0.1-0.2-0.1c-0.1-0.1-0.1-0.1-0.1-0.2c0-0.1,0-0.1,0-0.2c0-0.1,0-0.2,0-0.2l0,0
		c0-0.1,0.1-0.1,0.1-0.2c0.1-0.1,0.1-0.1,0.2-0.1c0.1,0,0.1,0,0.2,0s0.2,0,0.2,0c0.1,0,0.1,0.1,0.2,0.1c0.1,0.1,0.1,0.1,0.1,0.2
		c0,0.1,0,0.1,0,0.2c0,0.1,0,0.2,0,0.2l0,0c0,0.1-0.1,0.1-0.1,0.2c-0.1,0.1-0.1,0.1-0.2,0.1c-0.1,0-0.1,0-0.2,0
		C38.8,79.7,38.8,79.7,38.7,79.6 M38.8,79.4c0,0,0.1,0,0.1,0c0,0,0.1,0,0.1,0c0,0,0.1,0,0.1-0.1c0,0,0.1-0.1,0.1-0.1l0,0
		c0,0,0-0.1,0-0.1c0,0,0-0.1,0-0.1c0,0,0-0.1-0.1-0.1c0,0-0.1-0.1-0.1-0.1c0,0-0.1,0-0.1,0c0,0-0.1,0-0.1,0c0,0-0.1,0-0.1,0.1
		c0,0-0.1,0.1-0.1,0.1l0,0c0,0,0,0.1,0,0.1c0,0,0,0.1,0,0.1s0,0.1,0.1,0.1C38.7,79.4,38.7,79.4,38.8,79.4"/>
	<path class="st0" d="M40,80.1c-0.1,0-0.1,0-0.2-0.1c-0.1,0-0.1-0.1-0.1-0.2c0-0.1-0.1-0.1-0.1-0.2c0-0.1,0-0.2,0-0.3l0,0
		c0-0.1,0.1-0.2,0.1-0.2c0-0.1,0.1-0.1,0.2-0.1C40,79,40,79,40.1,79c0.1,0,0.1,0,0.2,0c0.1,0,0.2,0.1,0.2,0.1c0,0.1,0.1,0.1,0.1,0.2
		l0.2-0.6l0.2,0.1l-0.4,1.5l-0.2-0.1l0.1-0.2c-0.1,0-0.1,0.1-0.2,0.1C40.1,80.1,40,80.1,40,80.1 M40.1,79.9c0,0,0.1,0,0.1,0
		c0,0,0.1,0,0.1,0c0,0,0.1-0.1,0.1-0.1c0,0,0.1-0.1,0.1-0.1l0,0c0-0.1,0-0.1,0-0.1c0,0,0-0.1,0-0.1c0,0,0-0.1-0.1-0.1
		c0,0-0.1,0-0.1-0.1c0,0-0.1,0-0.1,0c0,0-0.1,0-0.1,0s-0.1,0.1-0.1,0.1c0,0-0.1,0.1-0.1,0.1l0,0c0,0.1,0,0.1,0,0.1c0,0,0,0.1,0,0.1
		c0,0,0,0.1,0.1,0.1C40,79.9,40,79.9,40.1,79.9"/>
	
		<rect x="41.7" y="79.5" transform="matrix(0.1709 -0.9853 0.9853 0.1709 -43.9697 107.4717)" class="st0" width="0.3" height="0.6"/>
	<path class="st0" d="M43.3,80.7c-0.1,0-0.2,0-0.2-0.1c-0.1,0-0.2-0.1-0.2-0.1l0.1-0.2c0.1,0,0.1,0.1,0.2,0.1c0.1,0,0.1,0,0.2,0
		c0.1,0,0.1,0,0.1,0c0,0,0,0,0.1-0.1v0c0,0,0,0,0-0.1c0,0,0,0-0.1,0c0,0,0,0-0.1,0c0,0-0.1,0-0.1,0c0,0-0.1,0-0.1,0
		c0,0-0.1,0-0.1-0.1c0,0-0.1-0.1-0.1-0.1c0,0,0-0.1,0-0.1l0,0c0-0.1,0-0.1,0-0.1c0,0,0.1-0.1,0.1-0.1c0,0,0.1,0,0.1-0.1
		c0,0,0.1,0,0.2,0c0.1,0,0.1,0,0.2,0c0.1,0,0.1,0.1,0.2,0.1l-0.1,0.2c-0.1,0-0.1-0.1-0.2-0.1c-0.1,0-0.1,0-0.2,0c0,0-0.1,0-0.1,0
		c0,0,0,0,0,0.1v0c0,0,0,0,0,0.1c0,0,0,0,0.1,0c0,0,0,0,0.1,0c0,0,0.1,0,0.1,0c0,0,0.1,0,0.1,0.1c0,0,0.1,0,0.1,0.1
		c0,0,0.1,0.1,0.1,0.1c0,0,0,0.1,0,0.1v0c0,0.1,0,0.1,0,0.2c0,0-0.1,0.1-0.1,0.1c0,0-0.1,0-0.1,0.1S43.4,80.7,43.3,80.7"/>
	<path class="st0" d="M44,79.2l0.3,0l0,0.6c0,0,0-0.1,0.1-0.1c0,0,0,0,0.1-0.1c0,0,0.1,0,0.1,0c0,0,0.1,0,0.1,0c0.1,0,0.2,0,0.3,0.1
		C45,79.7,45,79.9,45,80l0,0.7l-0.3,0l0-0.6c0-0.1,0-0.2-0.1-0.2c0,0-0.1-0.1-0.2-0.1c-0.1,0-0.1,0-0.2,0.1c0,0-0.1,0.1-0.1,0.2
		l0,0.6l-0.3,0L44,79.2z"/>
	<path class="st0" d="M46,80.6l0-0.1c0,0-0.1,0.1-0.1,0.1c-0.1,0-0.1,0.1-0.2,0.1c-0.1,0-0.1,0-0.2,0c0,0-0.1,0-0.1-0.1
		c0,0-0.1-0.1-0.1-0.1c0,0,0-0.1-0.1-0.1l0,0c0-0.1,0-0.1,0-0.2c0,0,0-0.1,0.1-0.1c0,0,0.1-0.1,0.1-0.1c0.1,0,0.1,0,0.2,0
		c0.1,0,0.1,0,0.2,0c0,0,0.1,0,0.1,0l0,0c0-0.1,0-0.1-0.1-0.2c-0.1,0-0.1,0-0.2,0c-0.1,0-0.1,0-0.2,0c0,0-0.1,0-0.1,0.1l-0.1-0.2
		c0.1,0,0.1-0.1,0.2-0.1c0.1,0,0.1,0,0.2-0.1c0.2,0,0.3,0,0.4,0.1c0.1,0.1,0.1,0.2,0.2,0.3l0.1,0.7L46,80.6z M46,80.1
		c0,0-0.1,0-0.1,0c0,0-0.1,0-0.1,0c-0.1,0-0.1,0-0.2,0.1c0,0-0.1,0.1-0.1,0.1l0,0c0,0.1,0,0.1,0.1,0.1c0,0,0.1,0,0.2,0
		c0,0,0.1,0,0.1,0c0,0,0.1,0,0.1-0.1c0,0,0-0.1,0.1-0.1C46,80.3,46,80.2,46,80.1L46,80.1z"/>
	<path class="st0" d="M46.4,79.4l0.3,0l0,0.2c0-0.1,0.1-0.2,0.1-0.2c0.1-0.1,0.1-0.1,0.2-0.1l0.1,0.3l0,0c-0.1,0-0.1,0-0.1,0.1
		c0,0-0.1,0.1-0.1,0.1c0,0,0,0.1-0.1,0.2c0,0.1,0,0.1,0,0.2l0.1,0.4l-0.3,0L46.4,79.4z"/>
	<path class="st0" d="M48,80.2c-0.1,0-0.2,0-0.2,0s-0.1,0-0.2-0.1c-0.1,0-0.1-0.1-0.2-0.1c0-0.1-0.1-0.1-0.1-0.2l0,0
		c0-0.1,0-0.2,0-0.2c0-0.1,0-0.1,0.1-0.2c0-0.1,0.1-0.1,0.1-0.2c0.1,0,0.1-0.1,0.2-0.1c0.1,0,0.2,0,0.2,0c0.1,0,0.1,0,0.2,0.1
		c0.1,0,0.1,0.1,0.1,0.2c0,0.1,0.1,0.1,0.1,0.2c0,0,0,0,0,0c0,0,0,0,0,0l-0.8,0.2c0,0.1,0.1,0.1,0.2,0.2c0.1,0,0.1,0,0.2,0
		c0.1,0,0.1,0,0.2-0.1c0,0,0.1-0.1,0.1-0.1l0.2,0.1c0,0.1-0.1,0.1-0.1,0.2C48.1,80.2,48.1,80.2,48,80.2 M48,79.5c0,0,0-0.1-0.1-0.1
		c0,0,0-0.1-0.1-0.1c0,0-0.1,0-0.1,0c0,0-0.1,0-0.1,0c-0.1,0-0.1,0.1-0.2,0.1c0,0.1,0,0.1,0,0.2L48,79.5z"/>
	<path class="st0" d="M49,78.9L48.9,79l-0.1-0.2l0.1-0.1l0-0.1c0-0.1,0-0.2,0-0.3c0-0.1,0.1-0.1,0.2-0.2c0,0,0.1,0,0.1,0
		c0,0,0.1,0,0.1,0l0.1,0.2c0,0-0.1,0-0.1,0s0,0-0.1,0c-0.1,0-0.1,0.1-0.1,0.2l0,0.1l0.3-0.1l0.1,0.2l-0.3,0.1l0.3,0.8l-0.2,0.1
		L49,78.9z"/>
	<path class="st0" d="M49.5,78.5l0.2-0.1l0.1,0.2c0-0.1,0-0.2,0.1-0.2c0-0.1,0.1-0.1,0.2-0.2l0.1,0.2l0,0c-0.1,0-0.1,0.1-0.1,0.1
		c0,0-0.1,0.1-0.1,0.1c0,0,0,0.1,0,0.2c0,0.1,0,0.1,0.1,0.2l0.2,0.4L50,79.5L49.5,78.5z"/>
	<path class="st0" d="M50,77.7l0.2-0.1l0.1,0.2L50.2,78L50,77.7z M50.2,78.1l0.2-0.1l0.5,1l-0.2,0.1L50.2,78.1z"/>
	<path class="st0" d="M51.7,78.6c-0.1,0-0.1,0.1-0.2,0.1c-0.1,0-0.1,0-0.2,0c-0.1,0-0.1,0-0.2-0.1c-0.1,0-0.1-0.1-0.2-0.2l0,0
		c0-0.1-0.1-0.1-0.1-0.2s0-0.1,0-0.2c0-0.1,0-0.1,0.1-0.2c0-0.1,0.1-0.1,0.2-0.2c0.1,0,0.2-0.1,0.2-0.1c0.1,0,0.1,0,0.2,0
		c0.1,0,0.1,0.1,0.2,0.1c0.1,0.1,0.1,0.1,0.2,0.2c0,0,0,0,0,0c0,0,0,0,0,0l-0.7,0.4c0.1,0.1,0.1,0.1,0.2,0.1c0.1,0,0.1,0,0.2,0
		c0.1,0,0.1-0.1,0.1-0.1s0-0.1,0.1-0.2l0.2,0c0,0.1,0,0.2-0.1,0.2C51.9,78.5,51.8,78.5,51.7,78.6 M51.6,77.9
		C51.6,77.8,51.6,77.8,51.6,77.9c-0.1-0.1-0.1-0.1-0.2-0.1c0,0-0.1,0-0.1,0c0,0-0.1,0-0.1,0c-0.1,0-0.1,0.1-0.1,0.2
		c0,0.1,0,0.2,0,0.2L51.6,77.9z"/>
	<path class="st0" d="M51.7,77.2l0.2-0.2l0.1,0.1c0,0,0-0.1,0-0.1c0,0,0-0.1,0-0.1c0,0,0-0.1,0.1-0.1c0,0,0-0.1,0.1-0.1
		c0.1-0.1,0.2-0.1,0.3-0.1c0.1,0,0.2,0.1,0.3,0.2l0.4,0.6L53,77.7l-0.4-0.5c-0.1-0.1-0.1-0.1-0.2-0.1c-0.1,0-0.1,0-0.2,0
		c-0.1,0-0.1,0.1-0.1,0.2c0,0.1,0,0.1,0.1,0.2l0.4,0.5l-0.2,0.2L51.7,77.2z"/>
	<path class="st0" d="M53.8,77c0,0-0.1,0.1-0.2,0.1c-0.1,0-0.1,0-0.2,0c-0.1,0-0.1,0-0.2-0.1c-0.1,0-0.1-0.1-0.2-0.2l0,0
		c-0.1-0.1-0.1-0.1-0.1-0.2c0-0.1,0-0.1,0-0.2c0-0.1,0-0.1,0-0.2c0-0.1,0.1-0.1,0.1-0.2c0.1-0.1,0.1-0.1,0.2-0.1c0.1,0,0.1,0,0.2,0
		L53,75.6l0.2-0.2l1,1.1l-0.2,0.2l-0.1-0.1c0,0.1,0,0.1,0,0.2C53.9,76.9,53.9,77,53.8,77 M53.7,76.8c0,0,0.1-0.1,0.1-0.1
		c0,0,0-0.1,0-0.1c0,0,0-0.1,0-0.1c0,0,0-0.1-0.1-0.1l0,0c0,0-0.1-0.1-0.1-0.1c0,0-0.1,0-0.1,0c0,0-0.1,0-0.1,0c0,0-0.1,0-0.1,0.1
		c0,0-0.1,0.1-0.1,0.1c0,0,0,0.1,0,0.1c0,0,0,0.1,0,0.1c0,0,0,0.1,0.1,0.1l0,0c0,0,0.1,0.1,0.1,0.1c0,0,0.1,0,0.1,0c0,0,0.1,0,0.1,0
		C53.6,76.9,53.7,76.8,53.7,76.8"/>
	<path class="st0" d="M54.8,76.1c-0.1,0.1-0.1,0.1-0.2,0.2c-0.1,0-0.2,0.1-0.2,0.1l-0.1-0.2c0.1,0,0.1,0,0.2-0.1
		c0.1,0,0.1-0.1,0.1-0.1c0,0,0.1-0.1,0.1-0.1c0,0,0-0.1,0-0.1l0,0c0,0,0,0-0.1,0c0,0,0,0-0.1,0c0,0-0.1,0-0.1,0c0,0-0.1,0-0.1,0.1
		c0,0-0.1,0-0.1,0.1c0,0-0.1,0-0.1,0c0,0-0.1,0-0.1,0c0,0-0.1,0-0.1-0.1l0,0c0,0-0.1-0.1-0.1-0.1c0,0,0-0.1,0-0.1c0,0,0-0.1,0-0.1
		c0,0,0.1-0.1,0.1-0.1c0-0.1,0.1-0.1,0.2-0.1c0.1,0,0.1-0.1,0.2-0.1l0.1,0.2c-0.1,0-0.1,0-0.2,0.1s-0.1,0.1-0.1,0.1
		c0,0-0.1,0.1-0.1,0.1c0,0,0,0.1,0,0.1l0,0c0,0,0,0,0.1,0c0,0,0,0,0.1,0c0,0,0.1,0,0.1,0c0,0,0.1,0,0.1,0c0,0,0.1,0,0.1-0.1
		c0,0,0.1,0,0.1,0c0,0,0.1,0,0.1,0s0.1,0,0.1,0.1l0,0c0,0,0.1,0.1,0.1,0.1c0,0,0,0.1,0,0.1c0,0,0,0.1,0,0.1
		C54.8,76,54.8,76,54.8,76.1"/>
	<path class="st0" d="M54,74.6l0.2-0.2l0.5,0.4c0,0,0-0.1,0-0.1c0,0,0-0.1,0-0.1c0,0,0-0.1,0-0.1c0,0,0-0.1,0.1-0.1
		c0.1-0.1,0.2-0.2,0.3-0.2c0.1,0,0.2,0,0.3,0.1l0.6,0.4l-0.2,0.2l-0.5-0.4c-0.1-0.1-0.1-0.1-0.2-0.1c-0.1,0-0.1,0-0.2,0.1
		c0,0.1-0.1,0.1-0.1,0.2c0,0.1,0,0.1,0.1,0.2l0.5,0.4l-0.2,0.2L54,74.6z"/>
	<path class="st0" d="M54.7,73.6l0.2-0.2l0.2,0.1l-0.2,0.2L54.7,73.6z M55.1,73.8l0.1-0.2l0.9,0.6L56,74.5L55.1,73.8z"/>
	<path class="st0" d="M55.3,73.4l0.1-0.2l0.2,0.1c0-0.1,0-0.1-0.1-0.2c0-0.1,0-0.1,0.1-0.2c0-0.1,0.1-0.1,0.1-0.1
		c0.1,0,0.1-0.1,0.2-0.1c0.1,0,0.1,0,0.2,0c0.1,0,0.2,0,0.2,0.1l0,0c0.1,0,0.1,0.1,0.2,0.2c0,0.1,0.1,0.1,0.1,0.2c0,0.1,0,0.1,0,0.2
		c0,0.1,0,0.1-0.1,0.2c0,0.1-0.1,0.1-0.2,0.2c-0.1,0-0.1,0.1-0.2,0.1l0.4,0.3l-0.1,0.2L55.3,73.4z M56.4,73.4c0,0,0-0.1,0-0.1
		c0,0,0-0.1,0-0.1c0,0,0-0.1-0.1-0.1c0,0-0.1-0.1-0.1-0.1l0,0c0,0-0.1,0-0.1-0.1c0,0-0.1,0-0.1,0c0,0-0.1,0-0.1,0.1
		c0,0-0.1,0.1-0.1,0.1c0,0,0,0.1,0,0.1s0,0.1,0,0.1c0,0,0,0.1,0.1,0.1c0,0,0.1,0.1,0.1,0.1l0,0c0,0,0.1,0,0.1,0.1c0,0,0.1,0,0.1,0
		C56.3,73.5,56.3,73.5,56.4,73.4C56.4,73.4,56.4,73.4,56.4,73.4"/>
</g>
</svg>
