<?xml version="1.0" encoding="utf-8"?>
<!-- Generator: Adobe Illustrator 23.0.1, SVG Export Plug-In . SVG Version: 6.00 Build 0)  -->
<svg version="1.1" id="Layer_1" xmlns="http://www.w3.org/2000/svg" xmlns:xlink="http://www.w3.org/1999/xlink" x="0px" y="0px"
	 viewBox="0 0 255.1 171.6" style="enable-background:new 0 0 255.1 171.6;" xml:space="preserve">
<style type="text/css">
	.st0{clip-path:url(#SVGID_1_);fill:#FFFFFF;}
</style>
<g>
	<defs>
		<rect id="SVGID_3_" width="255.1" height="171.6"/>
	</defs>
	<clipPath id="SVGID_1_">
		<use xlink:href="#SVGID_3_"  style="overflow:visible;"/>
	</clipPath>
	<path class="st0" d="M56.2,82.1c2-3.1,3.5-6.6,4.4-10.5c0.2-0.8,0.3-1.6,0.5-2.3c-3.3,7-6.7,13.6-9,17.9
		C53.6,85.6,55,83.9,56.2,82.1"/>
	<path class="st0" d="M156.9,118.1c-3.2,2.9-6.9,5.2-10.9,6.9c-4.8,2-10.1,3.1-15.4,3.1c-5.3,0-10.5-1.1-15.4-3.1
		c-4.8-2-9.3-5-13-8.7c-0.5-0.5-1-1.1-1.5-1.6l-1,0.4c0.6,0.7,1.2,1.3,1.8,1.9c3.8,3.8,8.4,6.8,13.4,8.9c5,2,10.3,3.1,15.7,3.1
		c10.1,0.1,20.1-3.7,27.7-10.4C157.8,118.4,157.3,118.3,156.9,118.1"/>
	<path class="st0" d="M94,72.8c2-4.8,5-9.1,8.7-12.8c3.7-3.6,8.1-6.5,12.9-8.5c4.8-1.9,9.9-2.9,15.1-2.9c5.2,0,10.3,1,15,3
		c4.8,2,9.1,4.9,12.7,8.5c3.7,3.6,6.6,8,8.6,12.7c0.2,0.4,0.4,0.9,0.5,1.3c0.8-0.2,1.6-0.4,2.4-0.5c-0.2-0.6-0.4-1.2-0.7-1.8
		c-2.1-5.1-5.1-9.7-9-13.6c-3.9-3.9-8.5-7-13.6-9.1c-5.1-2.1-10.5-3.2-16-3.2c-5.5,0-10.9,1.2-16,3.3c-5,2.1-9.6,5.2-13.5,9.1
		c-3.8,3.9-6.9,8.5-8.9,13.6c-0.7,1.7-1.3,3.5-1.7,5.4l2.1-1C93,75.2,93.5,74,94,72.8"/>
	<path class="st0" d="M66.9,32.6c6.9-8.4,15.4-15.4,25-20.4c9.6-5,20.1-8.2,30.9-9.2C133.6,1.9,144.6,3,155,6.1
		c10.4,3.1,20.2,8.3,28.6,15.2c8.4,6.9,15.5,15.5,20.7,25.1c4.6,8.6,7.7,17.9,9.1,27.6l1.1-0.5c-1.3-9.7-4.3-19.1-8.9-27.7
		c-5.1-9.8-12.3-18.7-20.8-25.8c-8.5-7.1-18.5-12.6-29.1-15.9c-10.6-3.4-22-4.6-33.1-3.6c-11.1,1.1-22.1,4.3-31.9,9.6
		C80.8,15.2,72,22.4,64.8,31c-2.8,3.3-5.3,6.8-7.5,10.5c1.3-0.5,2.7-0.9,4.1-1.2C63.1,37.6,64.9,35.1,66.9,32.6"/>
	<path class="st0" d="M194.6,138.2c-7,8.3-15.7,15.1-25.3,20c-9.6,4.9-20.2,7.9-30.9,8.8c-10.7,0.9-21.5-0.4-31.7-3.7
		c-10.2-3.3-19.6-8.6-27.7-15.5C62.8,134.1,52.4,114,50.4,93c2.6-1.8,5-4,7.3-6.5c3.7-4.1,6.5-8.6,8.4-13.4
		c1.9-4.9,2.6-9.5,1.9-13.7c-0.2-1.4-0.6-2.7-1.2-3.9c-0.6-1.3-1.5-2.4-2.5-3.3c-2-1.7-4.4-2.3-7.3-1.8c-0.4,0.1-0.9,0.2-1.3,0.3
		c-1.5,0.4-3,1.2-4.6,2.2c0,0-0.1,0.1-0.1,0.1c-2,1.4-3.9,3.3-5.7,5.7c-1.8,2.4-3.5,5.1-4.9,8.1c-0.4,0.7-0.7,1.5-1,2.2
		c-0.8,1.9-1.5,3.7-2.1,5.5c-0.3-3.1-0.6-6-0.9-8.8c-0.3-2.4-0.7-4.7-1.1-6.8l-0.4-2l-1.1,0.7c-2,1.3-3,2-4.9,3.3l-0.5,0.3l0.4,1.6
		c0.1,0.4,0.2,0.8,0.3,1.2c0.1,0.3,0.2,0.8,0.3,1.3c1.8,8.7,2,17.7,2.1,26.5c-0.1,9-0.1,18.1,0,27.1l0,1.1l1-0.2
		c1.7-0.4,2.5-0.5,4.2-0.9l0.7-0.1l0-0.7c0-9.3,0.1-13.8,0.2-22.9c0.1-4.9,0.5-9.2,1.1-12.8c0.4-2.2,0.9-4.3,1.5-6.4
		c0.4-1.5,0.9-2.9,1.5-4.4c1.2-3.1,2.6-5.8,4.2-8.1c0.7-1.1,1.5-2.1,2.2-3c0.8-0.9,1.6-1.7,2.5-2.4c1-0.9,2-1.5,3.1-1.9
		c0.6-0.2,1.1-0.4,1.7-0.5c1.5-0.3,2.7,0.1,3.8,1c1.1,1,1.8,2.5,2.1,4.5c0.4,2.5,0.3,5.2-0.2,8.2c-0.1,0.8-0.3,1.5-0.5,2.3
		c-0.9,3.9-2.4,7.4-4.4,10.5c-1.2,1.8-2.6,3.5-4.1,5c-0.6,0.7-1.3,1.3-2,1.9c-0.5,0.4-0.9,0.8-1.4,1.1c-1.8,1.3-3.5,2.4-5.3,3.1
		c-0.2,0.1-0.5,0.2-0.7,0.3c-0.8,0.3-1.7,0.6-2.5,0.7c-0.3,0.1-0.5,0.1-0.7,0.1l-1.4,0.1l0.7,1.2c1.1,1.8,3.4,1.5,5,1
		c0.6,4.7,1.6,9.3,2.9,13.9c1.6,5.5,3.9,10.8,6.6,15.9c5.4,10.1,12.9,19,21.8,26.2c8.9,7.1,19.2,12.5,30.1,15.6
		c10.9,3.2,22.4,4.2,33.6,3c11.2-1.2,22.2-4.6,32-10c9.8-5.4,18.6-12.7,25.6-21.4c4-5,7.5-10.5,10.3-16.3l-2.4,0.7
		C201.5,129.1,198.3,133.9,194.6,138.2"/>
	<path class="st0" d="M251.3,31c-0.1,0-0.1,0-0.2,0.1c-4.6,1.9-11.7,11-13.9,37.9c-1.2,14.5,4.2,23.7,5.5,28.7
		c2.2,8.7-5.5,29.3-7.1,39.1c-1.3,8.1,6.4,6.3,6.4,6.3c2.4-0.5,4.3-2.6,4.6-5.4l8.6-103.1C255.3,32.1,253.3,30.3,251.3,31"/>
	<path class="st0" d="M16.5,76.3c5.4-2.9,7.4-3,6.3-12.6c-0.9-7.6-3.6-22.1-5.7-30.1c-0.1-0.3-0.3-0.5-0.6-0.4l-0.2,0
		c-0.3,0-0.6,0.3-0.5,0.7l3.4,32.4c0.1,0.5-0.3,0.9-0.8,1l-1.3,0.1c-0.4,0-0.7-0.2-0.7-0.6l-4.3-32.6c0-0.3-0.3-0.5-0.5-0.4l-0.4,0
		c-0.3,0-0.5,0.3-0.5,0.6l3,32.7c0,0.3-0.2,0.7-0.6,0.7L11.5,68c-0.3,0-0.7-0.2-0.7-0.6L6.6,34.9c0-0.3-0.3-0.5-0.6-0.5l-0.3,0
		c-0.3,0-0.5,0.3-0.5,0.6l3,32.7c0,0.4-0.2,0.7-0.6,0.8l-1.3,0.1c-0.4,0-0.8-0.3-0.8-0.7L1.5,35.4c0-0.3-0.3-0.4-0.5-0.4l-0.4,0
		c-0.3,0-0.5,0.3-0.5,0.5c-0.3,8.1,0.2,23,1.1,30.6c1.1,9.6,3,9.2,8.9,10.9l4.6,60c0.3,2.9,2.6,5,5.1,5.1l0,0c0.3,0,0.5,0,0.8,0
		c2.9-0.3,5-3.2,4.6-6.4L16.5,76.3z"/>
	<polygon class="st0" points="89.4,27.8 77.2,38.5 79.8,41.5 84.3,37.6 94.5,49.3 97.8,46.5 87.6,34.7 92,30.8 	"/>
	<path class="st0" d="M115.7,36.9l4.1-1.7l-15.3-15l-3.7,1.5l-0.2,21.4l4-1.7l0-4.7l7.6-3.2L115.7,36.9z M104.7,32.6l0-6.8l4.8,4.9
		L104.7,32.6z"/>
	<path class="st0" d="M131.7,31.2c-0.5,0.3-1.2,0.5-2.1,0.5c-1.1,0-2.1-0.2-3.1-0.6c-0.9-0.4-1.9-1-2.8-1.7l-2.5,3.1
		c1.2,1,2.5,1.8,3.9,2.3c1.4,0.5,2.9,0.7,4.4,0.7c1.1,0,2-0.2,2.9-0.4c0.9-0.3,1.6-0.7,2.2-1.2c0.6-0.5,1.1-1.2,1.4-1.9
		c0.3-0.8,0.5-1.6,0.5-2.6l0-0.1c0-0.9-0.2-1.6-0.4-2.2c-0.3-0.6-0.7-1.1-1.2-1.6c-0.5-0.4-1.2-0.8-2-1.1c-0.8-0.3-1.7-0.6-2.7-0.8
		c-0.8-0.2-1.5-0.4-2.1-0.6c-0.6-0.2-1-0.3-1.3-0.5c-0.3-0.2-0.5-0.4-0.7-0.6c-0.1-0.2-0.2-0.5-0.2-0.8l0-0.1c0-0.5,0.2-0.9,0.6-1.2
		c0.4-0.3,1-0.5,1.9-0.5c0.8,0,1.7,0.2,2.5,0.5c0.8,0.3,1.7,0.8,2.6,1.4l2.2-3.3c-1-0.8-2.1-1.4-3.3-1.8c-1.2-0.4-2.5-0.6-4-0.6
		c-1,0-1.9,0.2-2.8,0.5c-0.8,0.3-1.5,0.7-2.1,1.2c-0.6,0.5-1.1,1.2-1.4,1.9c-0.3,0.7-0.5,1.5-0.5,2.4v0.1c0,1,0.2,1.8,0.5,2.4
		c0.3,0.6,0.8,1.2,1.3,1.6c0.6,0.4,1.3,0.8,2.1,1.1c0.8,0.3,1.7,0.5,2.7,0.8c0.8,0.2,1.5,0.4,2,0.6c0.5,0.2,0.9,0.4,1.2,0.5
		c0.3,0.2,0.5,0.4,0.6,0.6c0.1,0.2,0.2,0.5,0.2,0.7l0,0.1C132.5,30.4,132.2,30.8,131.7,31.2"/>
	<polygon class="st0" points="144.8,37.4 148.7,22.3 154.4,23.8 155.4,19.9 139.8,15.9 138.8,19.7 144.5,21.2 140.6,36.3 	"/>
	<polygon class="st0" points="173.5,29.7 161,22 150.8,38.7 163.5,46.4 165.5,43.2 156.4,37.6 158.6,34.1 166.4,38.9 168.4,35.7 
		160.6,30.9 162.6,27.5 171.6,32.9 	"/>
	<path class="st0" d="M232.1,107.2c-3,2.6-4.1,2.7-4.3,2.6c-0.1,0-0.3,0-0.5-0.5c-0.2-0.5-0.3-1.2-0.2-2c0.1-0.9,0.5-2.2,1.1-3.9
		l0.7-1.7c0.8-2.2,1.2-3.2,2-5.4l0.7-1.8c0.5-1.3,0.8-2.4,0.9-3.1c0.2-1.5-0.1-2.7-0.9-3.8c-0.8-1-1.9-1.6-3.3-1.8
		c-2.2-0.2-4.5,0.5-7,2.3c-0.5,0.4-1.1,0.8-1.6,1.3c-1.6,1.4-3.2,3.1-4.8,5.2c-0.2,0.3-0.4,0.5-0.6,0.8c0.3-0.8,0.5-1.5,0.8-2.2
		c0.8-2.4,1.6-4.7,2.7-7.9l0.6-1.6l-1.6,0.5c-0.5,0.1-0.9,0.3-1.3,0.4c-0.4,0.1-0.8,0.2-1.1,0.3c-0.7,0.2-1.4,0.4-2.3,0.7l-0.4,0.1
		l-0.1,0.4c-1.7,5.7-3.4,11.7-5.3,18.6c-0.8,0.7-1.5,1.2-2,1.6c-1.1,0.8-1.6,0.8-1.8,0.8c-0.1,0-0.4,0-0.7-0.6
		c-0.3-0.6-0.4-1.2-0.3-2c0.1-1,0.4-2.3,1-4c2.3-6.7,3.4-9.9,5.8-16.4l0.5-1.4l0.1-0.2l0,0l-1.6,0.5c-1.9,0.6-2.8,0.9-4.7,1.4
		l-0.4,0.1l-0.2,0.6c-1.3-1.3-3-2-5.1-2.2c-2.6-0.2-5.3,0.7-8.2,2.7c-2.7,1.9-5.1,4.5-7,7.7c-0.3,0.5-0.5,1-0.8,1.4
		c-1.4,2.7-2.1,5.3-2.3,7.9c0,0.6,0,1.2,0,1.7c-1.1,1-1.8,1.1-2.1,1.1c-0.2,0-0.5-0.1-0.7-0.5c-0.3-0.5-0.4-1.1-0.3-2
		c0-0.7,0.3-2.3,1.2-5.6c1.2-4.1,2.3-8.3,3.5-12.4c3.8-13.3,7.8-26.7,11.9-39.9l0.5-1.7l-1.6,0.6c-2.2,0.8-3.3,1.2-5.6,2l-0.4,0.2
		l-0.1,0.4c-2.4,9.1-4.8,18.3-7.1,27.4c-0.7,2.9-1.5,5.7-2.2,8.6c-1-0.6-2.1-0.9-3.2-1.1c-0.5-0.1-0.9-0.1-1.4-0.2
		c-0.3,0-0.6,0-0.9,0c-2.5,0.1-4.9,1.1-7.4,3c-2.6,2-4.8,4.5-6.5,7.6c-0.1,0.1-0.1,0.2-0.2,0.3c-1.7,3.2-2.6,6.4-2.7,9.6
		c0,0.6,0,1.2,0.1,1.8c-1.3,1.1-1.9,1.2-2,1.2c-0.1,0-0.4,0-0.7-0.6c-0.3-0.5-0.5-1.2-0.5-1.9c0-1,0.2-2.3,0.7-4.1
		c1.8-6.8,2.7-10.1,4.6-16.8l0.5-1.7l-1.6,0.6c-1.8,0.7-2.7,1-4.5,1.8l-0.4,0.2l-0.2,0.7c-1.3-1.2-3.1-1.8-5.2-1.8h0
		c-2.6,0-5.3,1.1-7.9,3.3c-2.6,2.1-4.7,4.9-6.4,8.2c-1.7,3.3-2.5,6.5-2.4,9.5c0,0.6,0.1,1.1,0.2,1.7c-1.3,1.2-1.9,1.4-2.1,1.4
		c-0.1,0-0.3,0-0.6-0.4c-0.3-0.5-0.4-1.1-0.5-1.9c0-0.9,0.1-2.2,0.5-4l0.4-1.8c0.5-2.3,0.8-3.4,1.3-5.7c0.6-2.6,0.9-4.4,0.8-5.5
		c0-1.5-0.5-2.7-1.4-3.5c-0.9-0.8-2-1.2-3.4-1.2c-2.4,0.1-4.7,1.4-6.9,4c-1.4,1.7-3,4.1-4.6,7.2c0.1-0.3,0.1-0.7,0.2-1.1
		c0.4-2.4,0.5-4,0.5-4.9c-0.1-1.6-0.6-2.8-1.4-3.6c-0.8-0.7-1.9-1-3.3-1c-2,0.1-4.1,1.3-6.2,3.5c-0.5,0.5-1,1.1-1.6,1.8
		c-1.3,1.7-2.6,3.6-3.7,5.7c0.5-3,1-5.8,1.7-9.8l0.3-1.7l-1.5,0.8c-1.8,0.9-2.7,1.3-4.5,2.2l-0.1,0l-0.4,0.2l-0.1,0.5
		c-0.3,2.5-0.6,5.1-0.9,7.9c-0.4,3.5-0.8,7.3-1.3,11.4c-2.2,2.6-3.1,2.9-3.3,2.9c-0.1,0-0.4,0-0.8-0.5c-0.4-0.5-0.6-1.1-0.6-1.9
		c-0.1-1,0-2.4,0.3-4.1c1.2-6.8,1.8-10.2,3.1-17.1l0.3-1.7l-1.6,0.8c-1.7,0.9-2.6,1.3-4.3,2.2l-0.4,0.2L81,85.9
		c-0.6-0.4-1.2-0.8-2-1c-1-0.3-2.2-0.4-3.4-0.3c-2.6,0.2-5.1,1.6-7.6,4c-2.4,2.4-4.3,5.3-5.6,8.7c-1.4,3.4-1.9,6.7-1.5,9.7
		c0.3,2.3,1.1,4.1,2.4,5.4c1.3,1.3,3,1.9,5,1.7c3.2-0.3,6.2-2.7,9.2-7.4c0.6-0.9,1.1-1.7,1.6-2.6c0-0.1,0.1-0.1,0.1-0.2
		c-0.1,0.7-0.1,1.2-0.1,1.7c0,0.4,0,0.7,0,1c0,0.1,0,0.2,0,0.3c0.1,1.5,0.7,2.8,1.6,3.9c1,1.2,2.2,1.7,3.4,1.6
		c0.9-0.1,1.8-0.6,2.7-1.6c0.3-0.3,0.7-0.7,1.1-1.2c-0.1,0.5-0.1,1-0.2,1.5l-0.2,1.5l1.4-0.6c1.1-0.5,1.7-0.7,2.8-1.2l0.4-0.2
		l0.1-0.5c0.3-1.8,0.7-3.4,1.1-4.8c0.1-0.4,0.2-0.8,0.3-1.2c0.1-0.2,0.1-0.5,0.2-0.7c0.5-1.5,0.9-2.9,1.5-4.3
		c0.7-1.6,1.5-3.2,2.4-4.9c1.1-2,2.2-3.6,3.2-4.9c0.3-0.4,0.6-0.7,0.9-1.1c1.5-1.6,2.5-2,3.1-2c0.4,0,0.6,0.1,0.6,0.2
		c0.1,0.2,0.2,0.5,0.3,0.9c0,0.5,0,1.2-0.2,2l-0.2,1.6c-0.8,5.7-1.3,9.2-1.9,13.7c-0.2,1.6-0.4,3.2-0.7,5.2l-0.2,1.5l1.4-0.5
		c0.2-0.1,0.3-0.1,0.5-0.2c0.9-0.3,1.5-0.6,2.5-0.9l0.4-0.2l0.1-0.5c0.7-3.3,1.5-6.1,2.3-8.3c0.9-2.3,2-4.8,3.4-7.3
		c1-1.9,2-3.4,2.9-4.6c0.8-1.1,1.7-2,2.4-2.5c0.7-0.5,1.3-0.7,1.8-0.8c0.4,0,0.7,0.1,0.8,0.2c0.1,0.1,0.3,0.3,0.3,0.7
		c0,0.5-0.1,1.2-0.2,2.1l-0.2,1.7c-0.6,3.8-0.9,5.7-1.4,9.6c-0.3,2.1-0.5,3.6-0.5,4.6c0.1,1.6,0.5,3,1.3,4.1c0.9,1.2,2,1.7,3.2,1.7
		c0.9,0,1.9-0.5,2.9-1.4c0.4-0.4,1-0.9,1.6-1.7c0.2,0.3,0.3,0.5,0.5,0.7c1.2,1.4,2.9,2.2,4.9,2.1c3.2-0.1,6.4-2.2,9.9-6.5
		c0.7-0.9,1.3-1.8,1.9-2.7c-0.2,1.4-0.4,2.3-0.4,2.9c0,1.5,0.4,2.9,1.2,4.1c0.9,1.3,2,1.9,3.3,1.9h0c0.9,0,1.8-0.4,2.9-1.3
		c0.1-0.1,0.3-0.2,0.4-0.4c0.3-0.3,0.7-0.7,1.2-1.1c0.2,0.3,0.3,0.6,0.5,0.8c1.2,1.5,2.8,2.3,4.8,2.3c1.9,0,3.7-0.6,5.6-2
		c1.2-0.9,2.5-2,3.7-3.4c0.2-0.2,0.4-0.4,0.6-0.7c0.5-0.6,0.9-1.2,1.3-1.7c-0.2,0.8-0.2,1.5-0.3,1.9c-0.1,1.5,0.3,2.9,1,4.1
		c0.8,1.3,1.9,2,3.2,2.1c0.6,0,1.1-0.1,1.6-0.3c0.4-0.2,1.1-0.7,1.9-1.5l0.6-0.6l0.3-0.3c0.2,0.3,0.3,0.6,0.5,0.9
		c1.1,1.5,2.7,2.3,4.7,2.4c3.2,0.2,6.6-1.7,10.3-5.8c0.8-0.8,1.5-1.7,2.1-2.5c-0.3,1.3-0.5,2.3-0.6,2.9c-0.1,1.5,0.2,2.9,1,4.1
		c0.8,1.3,1.9,2,3.1,2.1c0.8,0.1,1.7-0.3,2.8-1c0.1,0,0.1-0.1,0.2-0.1c0.4-0.3,0.8-0.6,1.3-1c-0.1,0.5-0.3,0.9-0.4,1.4l-0.4,1.4
		l1.4-0.3c1.3-0.3,1.9-0.4,3.2-0.7l0.4-0.1l0.7-1.6c0.8-1.8,1.5-3.5,2.2-4.9c0.7-1.3,1.3-2.5,1.9-3.5c0.1-0.2,0.2-0.4,0.3-0.6
		c1.1-1.8,2.4-3.6,4-5.4c0.8-0.9,1.6-1.7,2.2-2.4c2.9-2.8,4.7-3.4,5.8-3.2c0.4,0,0.6,0.2,0.8,0.4c0.1,0.1,0.2,0.3,0.2,0.9
		c-0.1,0.6-0.3,1.6-0.7,3c-1.2,3.8-1.7,5.7-2.9,9.5c-0.6,1.9-0.9,3.4-1.1,4.4c-0.2,1.6,0.1,3,0.7,4.2c0.7,1.3,1.7,2,2.9,2.2
		c0.1,0,0.2,0,0.3,0c0.8,0,1.7-0.3,2.7-1c0.9-0.6,2.4-1.8,4.5-3.7l1.2-1l-1.8-2L232.1,107.2z M161.3,106.1
		C161.3,106.1,161.2,106.1,161.3,106.1c-0.9,0-1.5-0.3-2-1c-0.5-0.7-0.8-1.8-0.7-3.1c0-1.6,0.4-3.4,1-5.4c0.7-2,1.5-3.9,2.5-5.5
		c1.4-2.2,2.8-3.9,4.4-5.1c1.2-0.9,2.4-1.5,3.5-1.6c0.2,0,0.3,0,0.5,0c0,0,0.1,0,0.1,0c0.6,0,1.1,0.1,1.6,0.4
		c0.3,0.1,0.5,0.2,0.8,0.4c0.6,0.4,1,0.8,1.2,1.4l-0.5,2.1c-0.3,1.1-0.8,2.9-1.7,5.5c-0.1,0.3-0.2,0.5-0.3,0.8
		c-0.6,1.4-1.3,2.8-2.2,4.2c-0.5,0.7-0.9,1.4-1.4,2c-1.1,1.4-2.1,2.6-3.2,3.4C163.6,105.5,162.3,106.1,161.3,106.1 M190.3,105.3
		c-1.5,1.1-2.8,1.6-4,1.5c-0.8,0-1.4-0.4-1.8-1.1c-0.5-0.8-0.7-1.8-0.6-3.2c0.1-1.3,0.5-2.9,1.2-4.9c0.8-2,1.7-3.9,2.8-5.5
		c1.3-2,2.8-3.6,4.4-4.7c1.4-0.9,2.6-1.4,3.7-1.4c0.1,0,0.2,0,0.3,0c1,0.1,1.8,0.4,2.6,1c0.7,0.6,1.1,1.3,1.4,2.2l-0.5,1.3
		c-0.8,2.4-1.6,4.3-2.2,5.7v0c-0.6,1.3-1.4,2.6-2.4,3.9C193.5,102.4,191.9,104.1,190.3,105.3 M139.1,103.9c-1.4,1.2-2.7,1.8-3.9,1.8
		h0c-0.8,0-1.4-0.3-1.8-0.9c-0.5-0.7-0.8-1.8-0.8-3.2c0-1.3,0.3-3,0.9-5c0.6-2.1,1.4-4,2.4-5.7c1.2-2.1,2.5-3.8,4-5
		c1.4-1.1,2.7-1.7,3.9-1.7h0c1,0,1.9,0.3,2.6,0.8c0.7,0.5,1.2,1.2,1.5,2.1l-0.4,1.4c-0.7,2.5-1.3,4.4-1.8,5.8
		c-0.5,1.3-1.2,2.7-2.1,4.1C142,100.8,140.5,102.7,139.1,103.9 M67.5,108.9c-0.6-0.7-0.9-1.7-1.1-3.1c-0.1-1.3,0-3,0.4-5.1
		c0.4-2.1,1-4.1,1.8-5.8c1-2.2,2.2-4,3.5-5.3c1.3-1.2,2.5-1.9,3.7-2c0.2,0,0.3,0,0.5,0c0.8,0,1.5,0.2,2.2,0.6
		c0.1,0.1,0.3,0.2,0.4,0.3c0.6,0.4,1,1,1.3,1.6l-0.2,1.4c-0.4,2.2-0.7,3.9-1.1,5.3c-0.1,0.2-0.1,0.4-0.2,0.6c-0.4,1.4-1,2.8-1.8,4.3
		c-1.3,2.5-2.6,4.5-3.9,5.9c-1.3,1.3-2.5,2-3.7,2.2C68.7,109.7,68,109.5,67.5,108.9"/>
	<path class="st0" d="M70.9,122.8c-0.2-0.3-0.4-0.7-0.5-1.1c-0.1-0.4-0.1-0.8-0.1-1.3l1,0c0,0.4,0,0.7,0.1,1
		c0.1,0.3,0.2,0.6,0.3,0.8c0.1,0.2,0.3,0.4,0.5,0.4c0.2,0.1,0.3,0.1,0.5,0l0,0c0.1-0.1,0.1-0.1,0.2-0.2c0-0.1,0-0.2,0-0.3
		c0-0.1,0-0.3-0.1-0.4c0-0.2-0.1-0.3-0.1-0.5c-0.1-0.2-0.1-0.4-0.2-0.6c0-0.2-0.1-0.4,0-0.6c0-0.2,0.1-0.4,0.2-0.6
		c0.1-0.2,0.3-0.3,0.5-0.5l0,0c0.2-0.1,0.4-0.2,0.7-0.2c0.2,0,0.5,0,0.7,0.1c0.2,0.1,0.4,0.2,0.6,0.4c0.2,0.2,0.4,0.4,0.5,0.6
		c0.2,0.3,0.3,0.6,0.4,1c0.1,0.4,0.1,0.7,0.1,1.1l-1,0.1c0-0.3,0-0.6-0.1-0.9c-0.1-0.3-0.2-0.5-0.3-0.7c-0.1-0.2-0.3-0.3-0.4-0.4
		c-0.2-0.1-0.3,0-0.4,0l0,0c-0.1,0.1-0.1,0.1-0.2,0.2c0,0.1,0,0.2,0,0.3c0,0.1,0,0.3,0.1,0.4c0,0.2,0.1,0.3,0.1,0.5
		c0.1,0.2,0.1,0.4,0.1,0.6c0,0.2,0,0.4,0,0.6c0,0.2-0.1,0.4-0.2,0.6c-0.1,0.2-0.2,0.3-0.5,0.5l0,0c-0.2,0.2-0.5,0.2-0.7,0.3
		c-0.2,0-0.5,0-0.7-0.1c-0.2-0.1-0.4-0.2-0.6-0.4C71.2,123.2,71.1,123,70.9,122.8"/>
	<path class="st0" d="M78.9,121l0.8,1l-2.4,1.8c0.2,0,0.3,0,0.5,0c0.2,0,0.3,0.1,0.5,0.1c0.2,0.1,0.3,0.1,0.5,0.2
		c0.1,0.1,0.3,0.2,0.4,0.4c0.4,0.5,0.5,1,0.4,1.5c-0.1,0.5-0.4,0.9-0.9,1.3l-2.8,2.1l-0.8-1l2.5-1.9c0.3-0.3,0.5-0.5,0.6-0.8
		c0.1-0.3,0-0.6-0.2-0.9c-0.2-0.3-0.5-0.5-0.8-0.5c-0.3,0-0.7,0.1-1,0.3l-2.5,1.9l-0.8-1L78.9,121z"/>
	<path class="st0" d="M79.1,133.2l0.5-0.5c-0.3,0-0.6,0-0.9-0.2c-0.3-0.1-0.6-0.3-0.9-0.6c-0.2-0.2-0.3-0.4-0.4-0.6
		c-0.1-0.2-0.2-0.5-0.2-0.7c0-0.2,0-0.4,0.1-0.7s0.2-0.4,0.4-0.6l0,0c0.2-0.2,0.5-0.3,0.7-0.4c0.2-0.1,0.5-0.1,0.7,0
		c0.2,0,0.5,0.1,0.7,0.3c0.2,0.2,0.5,0.4,0.7,0.6c0.2,0.2,0.4,0.5,0.5,0.7c0.1,0.2,0.2,0.4,0.3,0.6l0.1-0.1c0.3-0.3,0.4-0.5,0.4-0.8
		c0-0.3-0.2-0.6-0.4-0.9c-0.2-0.2-0.4-0.4-0.6-0.6c-0.2-0.1-0.4-0.3-0.7-0.4l0.5-0.9c0.3,0.1,0.6,0.3,0.9,0.5
		c0.3,0.2,0.6,0.4,0.9,0.8c0.5,0.6,0.8,1.2,0.8,1.8c0,0.6-0.3,1.1-0.9,1.6l-2.4,2.2L79.1,133.2z M80.8,131.7
		c-0.1-0.2-0.1-0.3-0.3-0.5c-0.1-0.2-0.3-0.4-0.4-0.6c-0.3-0.3-0.5-0.5-0.8-0.5c-0.3-0.1-0.5,0-0.7,0.2l0,0
		c-0.2,0.2-0.3,0.4-0.2,0.6c0,0.2,0.2,0.5,0.4,0.7c0.1,0.2,0.3,0.3,0.4,0.4c0.2,0.1,0.3,0.2,0.5,0.2c0.2,0,0.3,0,0.5,0
		c0.2,0,0.3-0.1,0.4-0.2L80.8,131.7z"/>
	<path class="st0" d="M84.8,131.2l0.9,0.9l-0.9,0.9c0.4-0.2,0.8-0.3,1.2-0.2c0.4,0,0.8,0.2,1.1,0.6l-0.9,1l-0.1,0
		c-0.2-0.2-0.4-0.3-0.6-0.4c-0.2-0.1-0.5-0.1-0.7-0.1c-0.2,0-0.5,0.1-0.7,0.2c-0.3,0.1-0.5,0.3-0.8,0.6l-1.4,1.5l-0.9-0.9
		L84.8,131.2z"/>
	<path class="st0" d="M86,139.9c-0.3-0.3-0.5-0.5-0.7-0.9c-0.2-0.3-0.3-0.7-0.3-1c0-0.4,0-0.7,0.1-1.1s0.3-0.7,0.6-1l0,0
		c0.3-0.3,0.5-0.6,0.9-0.7c0.3-0.2,0.7-0.3,1-0.4c0.3,0,0.7,0,1,0.1c0.3,0.1,0.7,0.3,1,0.5c0.3,0.3,0.6,0.6,0.7,0.9
		c0.2,0.3,0.2,0.7,0.2,1c0,0.3-0.1,0.7-0.2,1c-0.1,0.3-0.3,0.7-0.6,1c0,0-0.1,0.1-0.1,0.1c0,0-0.1,0.1-0.1,0.1l-3.1-2.6
		c-0.2,0.4-0.3,0.8-0.2,1.1c0.1,0.4,0.3,0.7,0.6,0.9c0.2,0.2,0.5,0.3,0.7,0.4c0.2,0.1,0.5,0.1,0.8,0.1l0.2,1c-0.4,0.1-0.8,0.1-1.2,0
		C86.8,140.4,86.4,140.2,86,139.9 M89,138.1c0.1-0.2,0.2-0.3,0.3-0.5c0.1-0.2,0.1-0.4,0.1-0.5c0-0.2-0.1-0.3-0.1-0.5
		c-0.1-0.2-0.2-0.3-0.4-0.4c-0.3-0.2-0.6-0.3-1-0.3c-0.4,0-0.7,0.2-1,0.5L89,138.1z"/>
	<path class="st0" d="M94.1,140.2l-0.6-0.4l0.6-0.9l0.6,0.4l0.2-0.3c0.3-0.5,0.7-0.8,1.1-0.9c0.4-0.1,0.8,0,1.3,0.3
		c0.2,0.1,0.3,0.2,0.5,0.3c0.1,0.1,0.2,0.2,0.3,0.3l-0.6,0.9c-0.1-0.1-0.2-0.2-0.2-0.3c-0.1-0.1-0.2-0.2-0.3-0.2
		c-0.4-0.3-0.8-0.2-1.1,0.3l-0.2,0.3l1.2,0.8l-0.6,0.9l-1.2-0.8l-2.4,3.7l-1.1-0.7L94.1,140.2z"/>
	<path class="st0" d="M97.1,147.2c-0.4-0.2-0.7-0.4-0.9-0.7c-0.2-0.3-0.4-0.6-0.5-1s-0.1-0.7-0.1-1.1c0-0.4,0.1-0.7,0.3-1.1l0,0
		c0.2-0.3,0.4-0.6,0.7-0.9c0.3-0.2,0.6-0.4,1-0.5c0.4-0.1,0.7-0.1,1.1-0.1c0.4,0,0.8,0.2,1.1,0.4c0.4,0.2,0.7,0.4,0.9,0.8
		c0.2,0.3,0.4,0.6,0.5,1c0.1,0.4,0.1,0.7,0.1,1.1c0,0.4-0.1,0.7-0.3,1.1l0,0c-0.2,0.3-0.4,0.6-0.7,0.9c-0.3,0.2-0.6,0.4-1,0.5
		c-0.4,0.1-0.7,0.1-1.1,0.1C97.8,147.6,97.4,147.4,97.1,147.2 M97.6,146.3c0.2,0.1,0.4,0.2,0.7,0.2c0.2,0,0.4,0,0.6-0.1
		c0.2-0.1,0.4-0.2,0.6-0.3c0.2-0.1,0.3-0.3,0.4-0.5l0,0c0.1-0.2,0.2-0.4,0.2-0.7c0-0.2,0-0.4,0-0.7c-0.1-0.2-0.2-0.4-0.3-0.6
		c-0.1-0.2-0.3-0.3-0.5-0.4c-0.2-0.1-0.4-0.2-0.7-0.2c-0.2,0-0.4,0-0.6,0.1c-0.2,0.1-0.4,0.2-0.6,0.3c-0.2,0.2-0.3,0.3-0.4,0.5l0,0
		c-0.1,0.2-0.2,0.4-0.2,0.7c0,0.2,0,0.4,0,0.7c0.1,0.2,0.1,0.4,0.3,0.6C97.2,146,97.4,146.2,97.6,146.3"/>
	<path class="st0" d="M103.3,150.2c-0.4-0.2-0.7-0.4-1-0.7c-0.3-0.3-0.5-0.6-0.6-0.9c-0.1-0.3-0.2-0.7-0.2-1.1
		c0-0.4,0.1-0.7,0.2-1.1l0,0c0.2-0.4,0.4-0.7,0.6-0.9c0.3-0.3,0.6-0.5,0.9-0.6c0.3-0.1,0.7-0.2,1.1-0.2c0.4,0,0.8,0.1,1.2,0.2
		c0.4,0.2,0.7,0.4,1,0.7c0.3,0.3,0.5,0.6,0.6,0.9c0.1,0.3,0.2,0.7,0.2,1.1c0,0.4-0.1,0.7-0.2,1.1l0,0c-0.1,0.4-0.4,0.7-0.6,0.9
		c-0.3,0.3-0.6,0.5-0.9,0.6c-0.3,0.1-0.7,0.2-1.1,0.2C104.1,150.5,103.7,150.4,103.3,150.2 M103.8,149.2c0.2,0.1,0.5,0.1,0.7,0.1
		c0.2,0,0.4-0.1,0.6-0.1c0.2-0.1,0.4-0.2,0.5-0.4c0.2-0.2,0.3-0.4,0.4-0.6l0,0c0.1-0.2,0.1-0.4,0.1-0.7c0-0.2,0-0.4-0.1-0.7
		c-0.1-0.2-0.2-0.4-0.3-0.6c-0.2-0.2-0.3-0.3-0.6-0.4c-0.2-0.1-0.5-0.1-0.7-0.1c-0.2,0-0.4,0.1-0.6,0.1c-0.2,0.1-0.4,0.2-0.5,0.4
		c-0.2,0.2-0.3,0.4-0.4,0.6l0,0c-0.1,0.2-0.1,0.4-0.1,0.7c0,0.2,0,0.4,0.1,0.7s0.2,0.4,0.3,0.6C103.4,149,103.6,149.1,103.8,149.2"
		/>
	<path class="st0" d="M109.6,152.5c-0.3-0.1-0.6-0.2-0.9-0.5c-0.3-0.2-0.5-0.5-0.6-0.8c-0.2-0.3-0.3-0.6-0.3-1c0-0.4,0-0.8,0.1-1.2
		l0,0c0.1-0.4,0.3-0.8,0.6-1.1s0.5-0.5,0.8-0.7c0.3-0.2,0.6-0.3,0.9-0.3c0.3,0,0.7,0,1,0.1c0.4,0.1,0.8,0.3,1,0.6
		c0.2,0.3,0.4,0.6,0.5,0.9l0.9-2.8l1.2,0.4l-2.2,7.3l-1.2-0.4l0.3-0.9c-0.3,0.2-0.6,0.4-0.9,0.5C110.4,152.6,110,152.6,109.6,152.5
		 M110.2,151.5c0.2,0.1,0.4,0.1,0.6,0.1c0.2,0,0.4-0.1,0.6-0.2c0.2-0.1,0.3-0.3,0.5-0.4c0.1-0.2,0.3-0.4,0.3-0.6l0,0
		c0.1-0.3,0.1-0.5,0.1-0.7c0-0.2-0.1-0.4-0.2-0.6s-0.2-0.4-0.4-0.5c-0.2-0.1-0.3-0.2-0.5-0.3c-0.2-0.1-0.4-0.1-0.6-0.1
		c-0.2,0-0.4,0.1-0.6,0.2c-0.2,0.1-0.3,0.2-0.5,0.4c-0.1,0.2-0.3,0.4-0.3,0.7l0,0c-0.1,0.3-0.1,0.5-0.1,0.7s0.1,0.4,0.2,0.6
		c0.1,0.2,0.2,0.3,0.4,0.5C109.8,151.4,110,151.5,110.2,151.5"/>
	
		<rect x="118.3" y="149.8" transform="matrix(0.1707 -0.9853 0.9853 0.1707 -50.4727 242.7301)" class="st0" width="1.2" height="3.1"/>
	<path class="st0" d="M126.1,155.5c-0.4,0-0.8-0.1-1.2-0.3c-0.4-0.2-0.8-0.4-1.1-0.7l0.6-0.8c0.3,0.2,0.6,0.4,0.9,0.6
		c0.3,0.1,0.6,0.2,0.9,0.2c0.3,0,0.5,0,0.6-0.1c0.2-0.1,0.2-0.2,0.2-0.4l0,0c0-0.1,0-0.2-0.1-0.3c-0.1-0.1-0.1-0.2-0.3-0.2
		c-0.1-0.1-0.2-0.1-0.4-0.2c-0.1-0.1-0.3-0.1-0.5-0.2c-0.2-0.1-0.4-0.1-0.6-0.2c-0.2-0.1-0.4-0.2-0.5-0.3c-0.2-0.1-0.3-0.3-0.4-0.5
		c-0.1-0.2-0.1-0.4-0.1-0.7l0,0c0-0.3,0.1-0.5,0.2-0.7c0.1-0.2,0.3-0.4,0.4-0.5c0.2-0.1,0.4-0.2,0.6-0.3c0.2-0.1,0.5-0.1,0.8-0.1
		c0.3,0,0.7,0.1,1,0.2s0.7,0.3,0.9,0.5l-0.6,0.9c-0.3-0.2-0.5-0.3-0.8-0.4c-0.3-0.1-0.5-0.2-0.7-0.2c-0.2,0-0.4,0-0.6,0.1
		c-0.1,0.1-0.2,0.2-0.2,0.4l0,0c0,0.1,0,0.2,0.1,0.3c0.1,0.1,0.2,0.1,0.3,0.2c0.1,0.1,0.2,0.1,0.4,0.2c0.1,0.1,0.3,0.1,0.5,0.2
		c0.2,0.1,0.4,0.2,0.6,0.3c0.2,0.1,0.4,0.2,0.5,0.3c0.2,0.1,0.3,0.3,0.4,0.5c0.1,0.2,0.1,0.4,0.1,0.6l0,0c0,0.3-0.1,0.5-0.2,0.7
		c-0.1,0.2-0.3,0.4-0.5,0.5c-0.2,0.1-0.4,0.2-0.7,0.3C126.7,155.5,126.4,155.5,126.1,155.5"/>
	<path class="st0" d="M129.3,148l1.3,0l0.1,3c0.1-0.1,0.2-0.3,0.3-0.4c0.1-0.1,0.2-0.2,0.4-0.3c0.1-0.1,0.3-0.2,0.5-0.2
		c0.2-0.1,0.4-0.1,0.6-0.1c0.6,0,1.1,0.2,1.5,0.5c0.3,0.4,0.5,0.9,0.5,1.5l0.1,3.5l-1.3,0l-0.1-3.1c0-0.4-0.1-0.8-0.3-1
		c-0.2-0.2-0.5-0.3-0.9-0.3c-0.4,0-0.7,0.1-0.9,0.4c-0.2,0.2-0.3,0.6-0.3,1l0.1,3.1l-1.3,0L129.3,148z"/>
	<path class="st0" d="M139.4,154.9l-0.1-0.7c-0.2,0.2-0.4,0.5-0.6,0.6c-0.3,0.2-0.6,0.3-1,0.3c-0.3,0-0.5,0-0.8,0
		c-0.2,0-0.5-0.1-0.7-0.2c-0.2-0.1-0.4-0.3-0.5-0.5c-0.1-0.2-0.2-0.4-0.2-0.7l0,0c0-0.3,0-0.6,0.1-0.8c0.1-0.2,0.2-0.4,0.4-0.6
		c0.2-0.2,0.4-0.3,0.7-0.4c0.3-0.1,0.6-0.2,0.9-0.2c0.3,0,0.6-0.1,0.8,0c0.2,0,0.5,0,0.7,0.1l0-0.1c0-0.4-0.2-0.7-0.4-0.8
		c-0.3-0.2-0.6-0.2-1-0.2c-0.3,0-0.6,0.1-0.8,0.2c-0.2,0.1-0.5,0.2-0.7,0.3l-0.5-1c0.3-0.2,0.6-0.3,0.9-0.4c0.3-0.1,0.7-0.2,1.1-0.3
		c0.8-0.1,1.4,0,1.9,0.4c0.4,0.4,0.7,0.9,0.8,1.6l0.4,3.2L139.4,154.9z M139.1,152.6c-0.2,0-0.4-0.1-0.6-0.1c-0.2,0-0.5,0-0.7,0
		c-0.4,0-0.7,0.2-0.9,0.3c-0.2,0.2-0.3,0.4-0.3,0.7l0,0c0,0.3,0.2,0.5,0.4,0.6c0.2,0.1,0.5,0.2,0.8,0.1c0.2,0,0.4-0.1,0.6-0.1
		s0.3-0.2,0.4-0.3c0.1-0.1,0.2-0.2,0.3-0.4c0.1-0.1,0.1-0.3,0.1-0.5L139.1,152.6z"/>
	<path class="st0" d="M141.1,149.1l1.2-0.2l0.2,1.2c0.1-0.4,0.3-0.8,0.5-1.1c0.3-0.3,0.6-0.5,1.1-0.6l0.3,1.3l-0.1,0
		c-0.3,0.1-0.5,0.1-0.7,0.3c-0.2,0.1-0.4,0.3-0.5,0.5c-0.1,0.2-0.2,0.5-0.2,0.7c0,0.3,0,0.6,0,1l0.4,2.1l-1.2,0.2L141.1,149.1z"/>
	<path class="st0" d="M148.8,153.1c-0.4,0.1-0.8,0.1-1.1,0.1c-0.4,0-0.7-0.2-1-0.3c-0.3-0.2-0.6-0.4-0.8-0.7
		c-0.2-0.3-0.4-0.7-0.5-1.1l0,0c-0.1-0.4-0.1-0.8-0.1-1.1c0-0.4,0.1-0.7,0.3-1c0.2-0.3,0.4-0.6,0.7-0.8c0.3-0.2,0.6-0.4,1-0.5
		c0.4-0.1,0.8-0.1,1.2-0.1c0.4,0.1,0.7,0.2,1,0.4c0.3,0.2,0.5,0.5,0.7,0.8c0.2,0.3,0.4,0.7,0.5,1c0,0.1,0,0.1,0,0.2
		c0,0.1,0,0.1,0,0.2l-3.9,1.1c0.2,0.4,0.4,0.7,0.8,0.9c0.3,0.2,0.7,0.2,1.1,0.1c0.3-0.1,0.5-0.2,0.7-0.4c0.2-0.2,0.4-0.4,0.5-0.6
		l0.9,0.4c-0.2,0.4-0.4,0.7-0.7,1C149.7,152.8,149.3,153,148.8,153.1 M149.1,149.7c-0.1-0.2-0.2-0.4-0.3-0.5
		c-0.1-0.2-0.2-0.3-0.4-0.4c-0.1-0.1-0.3-0.2-0.5-0.2c-0.2,0-0.4,0-0.6,0c-0.4,0.1-0.6,0.3-0.8,0.6c-0.2,0.3-0.2,0.7-0.2,1.1
		L149.1,149.7z"/>
	<path class="st0" d="M153.8,146.7l-0.7,0.2l-0.4-1l0.6-0.2l-0.1-0.4c-0.2-0.6-0.2-1-0.1-1.4c0.2-0.4,0.5-0.7,1-0.9
		c0.2-0.1,0.4-0.1,0.5-0.2c0.2,0,0.3-0.1,0.5-0.1l0.4,1c-0.1,0-0.3,0-0.4,0c-0.1,0-0.2,0.1-0.4,0.1c-0.5,0.2-0.6,0.5-0.4,1l0.1,0.3
		l1.4-0.5l0.4,1l-1.3,0.5l1.6,4.1l-1.2,0.5L153.8,146.7z"/>
	<path class="st0" d="M156.4,144.5l1.1-0.5l0.5,1.1c0-0.4,0.1-0.9,0.2-1.2c0.2-0.4,0.5-0.6,0.9-0.8l0.6,1.2l-0.1,0
		c-0.3,0.1-0.5,0.3-0.6,0.4c-0.2,0.2-0.3,0.4-0.4,0.6c-0.1,0.2-0.1,0.5-0.1,0.8c0,0.3,0.1,0.6,0.3,0.9l0.9,1.9l-1.1,0.5L156.4,144.5
		z"/>
	<path class="st0" d="M159,141l1.2-0.6l0.6,1.1l-1.2,0.6L159,141z M160,142.8l1.1-0.6l2.6,4.9l-1.1,0.6L160,142.8z"/>
	<path class="st0" d="M167.3,145c-0.3,0.2-0.7,0.3-1.1,0.4c-0.4,0.1-0.7,0.1-1.1,0c-0.3-0.1-0.7-0.2-1-0.5c-0.3-0.2-0.6-0.5-0.8-0.9
		l0,0c-0.2-0.3-0.3-0.7-0.4-1.1c-0.1-0.4-0.1-0.7,0-1.1c0.1-0.3,0.2-0.7,0.4-1c0.2-0.3,0.5-0.5,0.8-0.8c0.4-0.2,0.7-0.4,1.1-0.4
		c0.4,0,0.7,0,1,0.1c0.3,0.1,0.6,0.3,0.9,0.5c0.3,0.2,0.5,0.5,0.7,0.9c0,0,0.1,0.1,0.1,0.1c0,0.1,0.1,0.1,0.1,0.2l-3.4,2.1
		c0.3,0.3,0.6,0.5,1,0.6c0.4,0.1,0.7,0,1.1-0.2c0.3-0.2,0.5-0.4,0.6-0.6c0.1-0.2,0.2-0.5,0.3-0.8l1,0.2c-0.1,0.4-0.2,0.8-0.4,1.1
		C168.1,144.5,167.8,144.8,167.3,145 M166.7,141.6c-0.1-0.2-0.3-0.3-0.4-0.4c-0.2-0.1-0.3-0.2-0.5-0.2c-0.2,0-0.3-0.1-0.5,0
		c-0.2,0-0.4,0.1-0.5,0.2c-0.3,0.2-0.5,0.5-0.6,0.8c-0.1,0.4,0,0.7,0.2,1.1L166.7,141.6z"/>
	<path class="st0" d="M167.2,138.5l1-0.8l0.5,0.7c0-0.2,0-0.3,0-0.5c0-0.2,0.1-0.3,0.1-0.5c0.1-0.2,0.1-0.3,0.2-0.5
		c0.1-0.1,0.2-0.3,0.4-0.4c0.5-0.4,1-0.5,1.5-0.4c0.5,0.1,0.9,0.4,1.3,0.9l2.1,2.8l-1,0.8l-1.9-2.5c-0.3-0.3-0.5-0.5-0.8-0.6
		c-0.3-0.1-0.6,0-0.9,0.2c-0.3,0.2-0.5,0.5-0.5,0.8c0,0.3,0.1,0.7,0.3,1l1.9,2.5l-1,0.8L167.2,138.5z"/>
	<path class="st0" d="M177.5,137.4c-0.2,0.2-0.5,0.4-0.8,0.5c-0.3,0.1-0.6,0.2-1,0.1c-0.3,0-0.7-0.1-1-0.3c-0.3-0.2-0.7-0.4-1-0.7
		l0,0c-0.3-0.3-0.5-0.7-0.7-1c-0.1-0.4-0.2-0.7-0.2-1c0-0.3,0.1-0.7,0.2-1c0.1-0.3,0.3-0.6,0.6-0.8c0.3-0.3,0.7-0.5,1-0.5
		c0.4-0.1,0.7-0.1,1,0l-2-2.2l0.9-0.9l5.1,5.6l-0.9,0.9l-0.6-0.7c0,0.3,0,0.7-0.1,1C178,136.8,177.8,137.1,177.5,137.4 M176.9,136.4
		c0.2-0.1,0.3-0.3,0.4-0.5s0.1-0.4,0.1-0.6c0-0.2,0-0.4-0.1-0.6c-0.1-0.2-0.2-0.4-0.4-0.6l0,0c-0.2-0.2-0.4-0.3-0.6-0.4
		c-0.2-0.1-0.4-0.2-0.6-0.2c-0.2,0-0.4,0-0.6,0.1c-0.2,0.1-0.4,0.2-0.5,0.3c-0.2,0.1-0.3,0.3-0.4,0.5c-0.1,0.2-0.1,0.4-0.1,0.6
		c0,0.2,0,0.4,0.1,0.6c0.1,0.2,0.2,0.4,0.4,0.6l0,0c0.2,0.2,0.4,0.3,0.6,0.4c0.2,0.1,0.4,0.2,0.6,0.2c0.2,0,0.4,0,0.6-0.1
		C176.6,136.6,176.8,136.5,176.9,136.4"/>
	<path class="st0" d="M182.2,132.7c-0.3,0.3-0.6,0.5-1,0.7c-0.4,0.2-0.8,0.3-1.2,0.4l-0.3-1c0.4-0.1,0.7-0.2,1-0.3s0.5-0.3,0.7-0.5
		c0.2-0.2,0.3-0.4,0.3-0.6c0-0.2,0-0.3-0.2-0.5l0,0c-0.1-0.1-0.2-0.1-0.3-0.1c-0.1,0-0.2,0-0.3,0.1c-0.1,0-0.2,0.1-0.4,0.2
		c-0.1,0.1-0.3,0.2-0.4,0.2c-0.2,0.1-0.4,0.2-0.6,0.3c-0.2,0.1-0.4,0.2-0.6,0.2c-0.2,0-0.4,0-0.6,0c-0.2,0-0.4-0.2-0.6-0.3l0,0
		c-0.2-0.2-0.3-0.4-0.4-0.6c-0.1-0.2-0.1-0.4-0.1-0.7c0-0.2,0.1-0.5,0.2-0.7c0.1-0.2,0.2-0.4,0.4-0.6c0.2-0.3,0.5-0.5,0.8-0.7
		c0.3-0.2,0.7-0.3,1-0.4l0.3,1c-0.3,0.1-0.6,0.2-0.8,0.3c-0.3,0.1-0.5,0.3-0.6,0.5c-0.2,0.2-0.3,0.4-0.3,0.5c0,0.2,0,0.3,0.2,0.4
		l0,0c0.1,0.1,0.2,0.1,0.3,0.1c0.1,0,0.2,0,0.3-0.1c0.1,0,0.3-0.1,0.4-0.2c0.1-0.1,0.3-0.2,0.4-0.2c0.2-0.1,0.4-0.2,0.6-0.3
		c0.2-0.1,0.4-0.2,0.6-0.2c0.2,0,0.4,0,0.6,0c0.2,0,0.4,0.1,0.6,0.3l0,0c0.2,0.2,0.4,0.4,0.5,0.6c0.1,0.2,0.1,0.4,0.1,0.7
		c0,0.2-0.1,0.5-0.2,0.7C182.5,132.2,182.3,132.5,182.2,132.7"/>
	<path class="st0" d="M178.3,125.5l0.8-1l2.4,1.8c-0.1-0.2-0.1-0.3-0.1-0.5c0-0.2,0-0.3,0-0.5c0-0.2,0.1-0.3,0.1-0.5
		c0.1-0.2,0.2-0.3,0.3-0.5c0.4-0.5,0.8-0.8,1.3-0.8c0.5,0,1,0.1,1.5,0.5l2.8,2.1l-0.8,1l-2.5-1.9c-0.3-0.3-0.7-0.4-1-0.4
		c-0.3,0-0.6,0.2-0.8,0.5c-0.2,0.3-0.3,0.6-0.3,0.9c0.1,0.3,0.2,0.6,0.6,0.9l2.5,1.9l-0.8,1L178.3,125.5z"/>
	<path class="st0" d="M181.9,120.7l0.8-1.1l1,0.7l-0.8,1.1L181.9,120.7z M183.6,121.8l0.7-1.1l4.6,3l-0.7,1.1L183.6,121.8z"/>
	<path class="st0" d="M185,119.7l0.6-1.1l0.8,0.5c-0.2-0.3-0.2-0.7-0.3-1c0-0.4,0.1-0.7,0.3-1.1c0.2-0.3,0.4-0.5,0.6-0.7
		c0.3-0.2,0.6-0.3,0.9-0.4c0.3-0.1,0.7-0.1,1.1-0.1c0.4,0,0.8,0.2,1.2,0.4l0,0c0.4,0.2,0.7,0.5,1,0.8c0.2,0.3,0.4,0.6,0.5,0.9
		c0.1,0.3,0.1,0.7,0.1,1s-0.1,0.6-0.3,0.9c-0.2,0.4-0.5,0.7-0.8,0.8c-0.3,0.2-0.6,0.3-1,0.3l2.2,1.2l-0.6,1.1L185,119.7z
		 M190.4,119.5c0.1-0.2,0.2-0.4,0.2-0.6c0-0.2,0-0.4-0.1-0.6c-0.1-0.2-0.2-0.4-0.3-0.6c-0.1-0.2-0.3-0.3-0.6-0.5l0,0
		c-0.2-0.1-0.5-0.2-0.7-0.2c-0.2,0-0.4,0-0.6,0c-0.2,0-0.4,0.1-0.6,0.3c-0.2,0.1-0.3,0.3-0.4,0.5c-0.1,0.2-0.2,0.4-0.2,0.6
		c0,0.2,0,0.4,0.1,0.6c0.1,0.2,0.2,0.4,0.3,0.6c0.1,0.2,0.3,0.3,0.6,0.5l0,0c0.2,0.1,0.5,0.2,0.7,0.2c0.2,0,0.5,0,0.7,0
		c0.2-0.1,0.4-0.1,0.6-0.3C190.1,119.8,190.2,119.7,190.4,119.5"/>
</g>
</svg>
