<?xml version="1.0" encoding="utf-8"?>
<!-- Generator: Adobe Illustrator 23.0.1, SVG Export Plug-In . SVG Version: 6.00 Build 0)  -->
<svg version="1.1" id="Layer_1" xmlns="http://www.w3.org/2000/svg" xmlns:xlink="http://www.w3.org/1999/xlink" x="0px" y="0px"
	 viewBox="0 0 30.9 30.9" style="enable-background:new 0 0 30.9 30.9;" xml:space="preserve">
<style type="text/css">
	.st0{fill:#FFFFFF;}
</style>
<g>
	<path class="st0" d="M21.3,0H9.7C4.3,0,0,4.3,0,9.7v11.6c0,5.3,4.3,9.7,9.7,9.7h11.6c5.3,0,9.7-4.3,9.7-9.7V9.7
		C30.9,4.3,26.6,0,21.3,0 M28,21.3c0,3.7-3,6.8-6.8,6.8H9.7c-3.7,0-6.8-3-6.8-6.8V9.7c0-3.7,3-6.8,6.8-6.8h11.6c3.7,0,6.8,3,6.8,6.8
		V21.3z"/>
	<path class="st0" d="M14.9,8.6c-3.8,0-6.9,3.1-6.9,6.9c0,3.8,3.1,6.9,6.9,6.9c3.8,0,6.9-3.1,6.9-6.9C21.8,11.7,18.7,8.6,14.9,8.6
		 M14.9,19.8c-2.4,0-4.3-1.9-4.3-4.3c0-2.4,1.9-4.3,4.3-4.3c2.4,0,4.3,1.9,4.3,4.3C19.2,17.8,17.3,19.8,14.9,19.8"/>
	<path class="st0" d="M22.3,7.2c0.5,0,0.9,0.4,0.9,0.9c0,0.5-0.4,0.9-0.9,0.9c-0.5,0-0.9-0.4-0.9-0.9C21.4,7.6,21.8,7.2,22.3,7.2"/>
</g>
</svg>
