<?xml version="1.0" encoding="utf-8"?>
<!-- Generator: Adobe Illustrator 23.0.1, SVG Export Plug-In . SVG Version: 6.00 Build 0)  -->
<svg version="1.1" id="Layer_1" xmlns="http://www.w3.org/2000/svg" xmlns:xlink="http://www.w3.org/1999/xlink" x="0px" y="0px"
	 viewBox="0 0 121 91.3" style="enable-background:new 0 0 121 91.3;" xml:space="preserve">
<style type="text/css">
	.st0{fill:#FFFFFF;}
</style>
<g>
	<path class="st0" d="M110.3,80.2c3.5-0.6,5.4,1.3,6.9,3.8c1,1.6,2.2,3,3.2,4.6c1.1,1.7,0.6,2.5-1.4,2.7c-0.5,0-0.9,0-1.4,0
		c-15.6,0-31.1,0-46.7,0.1c-2.2,0-3.1-0.6-2.9-2.9c0.2-3,0.1-5.9,0.1-8.9c0-4.5-2.9-7.2-7.7-7.2c-4.7,0-7.7,2.7-7.7,7.2
		c0,2.9-0.2,5.8,0,8.7c0.2,2.3-0.5,3.1-2.9,3c-11-0.1-22.1-0.1-33.1-0.1c-4.8,0-9.5,0-14.3,0c-0.8,0-2.1-0.3-2.2-0.7
		c-0.2-0.7,0.2-1.8,0.6-2.5c0.8-1.4,1.9-2.7,2.8-4c2.4-3.4,2.4-3.4,6.7-4.1v-5.7c0-3.7,0-7.4,0-11c0-2.9,0.9-3.9,3.7-3.9
		c4-0.1,3.8,0.5,3.8-4c0-6.3,0.1-12.7-0.1-19c0-1.2-0.9-2.3-1.1-3.5c-0.2-1.4-0.4-2.9-0.1-4.3c0.1-0.4,1.7-0.7,2.7-0.8
		c3.7-0.1,7.4-0.1,11,0c0.9,0,2.5,0.5,2.5,1c0.2,1.4-0.1,2.8-0.4,4.2c-0.2,0.8-0.9,1.6-0.9,2.4c-0.1,7.2,0,14.4-0.1,21.6
		c0,1.9,0.7,2.5,2.5,2.4c1.4-0.1,2.8,0.1,4.2-0.1c0.9-0.1,2.5-0.6,2.5-0.9c0-1.2-0.3-2.6-0.9-3.6c-0.8-1.3-2.2-2.2-3.1-3.5
		c-3-4.4-3.2-8.4,0.4-12.4c3-3.4,6.8-6.1,10.5-8.8c4.5-3.3,8.8-6.7,11.7-11.6c0.7-1.1,1.4-1.9,2.4-0.3c3.6,6.2,9.4,10.2,15.1,14.2
		c2.4,1.6,4.7,3.4,6.6,5.6c4.8,5.5,4.4,11.1-1,16.1c-0.5,0.5-1.3,0.8-1.5,1.4c-0.4,1-0.6,2.1-0.5,3.1c0.1,0.4,1.3,0.7,2.1,0.8
		c1.7,0.1,3.4,0,5.2,0.1c1.5,0.1,2.2-0.4,2.2-2.1c-0.1-7.4,0-14.9-0.1-22.3c0-0.6-0.7-1.3-0.8-1.9c-0.3-1.4-0.7-2.8-0.5-4.2
		c0.1-0.5,1.7-1,2.7-1c3.7-0.1,7.3-0.1,11,0c0.9,0,2.6,0.6,2.6,1.1c0.2,1.3-0.2,2.8-0.5,4.2c-0.2,0.8-0.9,1.4-0.9,2.2
		c-0.1,7.4,0,14.7-0.1,22.1c0,1.5,0.6,2.2,2.1,2.1c0.6,0,1.3,0,1.9,0c2.9,0.1,3.5,0.8,3.6,3.7C110.3,68.5,110.3,74.2,110.3,80.2"/>
	<path class="st0" d="M31.3,23.5H17.9c0.5-7.8,2.4-15.1,5.3-22.1c0.2-0.6,0.9-1,1.4-1.4c0.4,0.5,1.1,0.9,1.3,1.5
		C28.8,8.4,30.6,15.6,31.3,23.5"/>
	<path class="st0" d="M102.7,23.5H89.3c0.2-1.6,0.2-3.1,0.6-4.4c1.5-5.7,3-11.4,4.6-17.1c0.2-0.7,0.9-1.3,1.4-2
		c0.6,0.7,1.5,1.2,1.7,2c1.8,6.4,3.4,12.8,5,19.2C102.9,21.8,102.7,22.5,102.7,23.5"/>
</g>
</svg>
