<!-- Generator: Adobe Illustrator 23.0.1, SVG Export Plug-In . SVG Version: 6.00 Build 0)  -->
<svg version="1.1" id="Layer_1" xmlns="http://www.w3.org/2000/svg" xmlns:xlink="http://www.w3.org/1999/xlink" x="0px" y="0px"
	viewBox="0 0 296.4 296.4" style="enable-background:new 0 0 296.4 296.4;" xml:space="preserve">
	<style type="text/css">
		.st0{fill:#FFFFFF;}
	</style>
	<g>
		<path class="st0" d="M150.2,296.4c81.8-1.1,147.3-68.3,146.2-150.2C295.3,64.4,228.1-1.1,146.3,0C64.5,1.1-1.1,68.3,0,150.2
			C1.2,232,68.4,297.5,150.2,296.4 M146.7,31.5c64.4-0.9,117.4,50.7,118.3,115.1c0.8,64.4-50.7,117.4-115.1,118.3
			c-64.5,0.9-117.4-50.7-118.3-115.1C30.7,85.3,82.2,32.3,146.7,31.5"/>
			<path class="st0" d="M118.6,203.3c-2.2,1.2-4,0.1-4-2.4V95.5c0-2.5,1.8-3.6,4-2.4l95.2,52.8c2.3,1.2,2.3,3.2,0,4.4L118.6,203.3z"/>
		</g>
	</svg>
