<?xml version="1.0" encoding="utf-8"?>
<!-- Generator: Adobe Illustrator 23.0.1, SVG Export Plug-In . SVG Version: 6.00 Build 0)  -->
<svg version="1.1" id="Layer_1" xmlns="http://www.w3.org/2000/svg" xmlns:xlink="http://www.w3.org/1999/xlink" x="0px" y="0px"
	 viewBox="0 0 158.1 106.4" style="enable-background:new 0 0 158.1 106.4;" xml:space="preserve">
<style type="text/css">
	.st0{clip-path:url(#SVGID_1_);fill:#FFFFFF;}
</style>
<g>
	<defs>
		<rect id="SVGID_3_" width="158.1" height="106.4"/>
	</defs>
	<clipPath id="SVGID_1_">
		<use xlink:href="#SVGID_3_"  style="overflow:visible;"/>
	</clipPath>
	<path class="st0" d="M34.8,50.9c1.2-1.9,2.2-4.1,2.8-6.5c0.1-0.5,0.2-1,0.3-1.4c-2,4.3-4.2,8.5-5.6,11.1
		C33.2,53.1,34.1,52,34.8,50.9"/>
	<path class="st0" d="M97.2,73.2c-2,1.8-4.3,3.3-6.7,4.3c-3,1.3-6.3,1.9-9.5,1.9c-3.3,0-6.5-0.7-9.5-1.9c-3-1.3-5.8-3.1-8.1-5.4
		c-0.3-0.3-0.6-0.7-0.9-1l-0.6,0.2c0.4,0.4,0.7,0.8,1.1,1.2c2.4,2.3,5.2,4.2,8.3,5.5c3.1,1.3,6.4,1.9,9.7,1.9
		c6.2,0,12.4-2.3,17.2-6.5C97.8,73.4,97.5,73.3,97.2,73.2"/>
	<path class="st0" d="M58.3,45.1c1.3-3,3.1-5.7,5.4-7.9c2.3-2.3,5-4.1,8-5.3c3-1.2,6.2-1.8,9.4-1.8c3.2,0,6.4,0.6,9.3,1.9
		c2.9,1.2,5.6,3,7.9,5.3c2.3,2.2,4.1,4.9,5.3,7.9c0.1,0.3,0.2,0.5,0.3,0.8c0.5-0.1,1-0.2,1.5-0.3c-0.1-0.4-0.3-0.7-0.4-1.1
		c-1.3-3.1-3.2-6-5.6-8.4c-2.4-2.4-5.3-4.3-8.4-5.6c-3.1-1.3-6.5-2-9.9-2c-3.4,0-6.8,0.7-9.9,2c-3.1,1.3-6,3.3-8.4,5.7
		c-2.4,2.4-4.3,5.3-5.5,8.4c-0.4,1.1-0.8,2.2-1.1,3.3l1.3-0.6C57.7,46.6,58,45.9,58.3,45.1"/>
	<path class="st0" d="M41.5,20.2C45.7,15,51,10.7,57,7.6c5.9-3.1,12.5-5.1,19.2-5.7c6.7-0.7,13.5,0,19.9,1.9
		c6.4,1.9,12.5,5.2,17.7,9.4c5.2,4.3,9.6,9.6,12.8,15.5c2.9,5.3,4.8,11.1,5.6,17.1l0.7-0.3c-0.8-6-2.7-11.8-5.5-17.2
		c-3.2-6.1-7.6-11.6-12.9-16c-5.3-4.4-11.5-7.8-18.1-9.9C89.9,0.3,82.9-0.4,76,0.2c-6.9,0.7-13.7,2.6-19.8,5.9
		c-6.1,3.3-11.6,7.7-16,13.1c-1.7,2.1-3.3,4.2-4.7,6.5c0.8-0.3,1.6-0.5,2.6-0.7C39.1,23.3,40.2,21.7,41.5,20.2"/>
	<path class="st0" d="M120.6,85.7c-4.4,5.1-9.7,9.4-15.7,12.4c-6,3.1-12.5,4.9-19.1,5.4c-6.6,0.5-13.4-0.2-19.6-2.3
		c-6.3-2-12.1-5.3-17.1-9.6c-10.1-8.5-16.5-20.9-17.7-33.9c1.6-1.1,3.1-2.5,4.5-4c2.3-2.5,4-5.3,5.2-8.3c1.2-3.1,1.6-5.9,1.2-8.5
		c-0.1-0.9-0.4-1.7-0.7-2.4c-0.4-0.8-0.9-1.5-1.6-2.1c-1.2-1-2.8-1.4-4.5-1.1c-0.3,0-0.5,0.1-0.8,0.2c-0.9,0.3-1.9,0.7-2.8,1.4
		c0,0-0.1,0-0.1,0c-1.2,0.9-2.4,2.1-3.5,3.6c-1.1,1.5-2.2,3.2-3,5c-0.2,0.5-0.4,0.9-0.6,1.4c-0.5,1.2-0.9,2.3-1.3,3.4
		c-0.2-1.9-0.4-3.7-0.6-5.5c-0.2-1.5-0.4-2.9-0.7-4.2l-0.3-1.3L21,35.7c-1.2,0.8-1.8,1.2-3.1,2.1L17.6,38l0.3,1
		c0.1,0.3,0.1,0.5,0.2,0.7c0.1,0.2,0.1,0.5,0.2,0.8c1.1,5.4,1.2,11,1.3,16.4c0,5.6-0.1,11.2,0,16.8l0,0.7l0.6-0.1
		c1.1-0.2,1.6-0.3,2.6-0.6l0.4-0.1l0-0.4c0-5.7,0.1-8.5,0.1-14.2c0.1-3.1,0.3-5.7,0.7-8c0.2-1.4,0.6-2.7,0.9-4
		c0.3-0.9,0.6-1.8,0.9-2.7c0.8-1.9,1.6-3.6,2.6-5c0.4-0.7,0.9-1.3,1.4-1.8c0.5-0.6,1-1.1,1.5-1.5c0.6-0.5,1.3-0.9,1.9-1.2
		c0.3-0.1,0.7-0.2,1-0.3c0.9-0.2,1.7,0,2.3,0.6c0.7,0.6,1.1,1.5,1.3,2.8c0.2,1.5,0.2,3.2-0.1,5.1c-0.1,0.5-0.2,0.9-0.3,1.4
		c-0.6,2.4-1.5,4.6-2.8,6.5c-0.7,1.1-1.6,2.2-2.5,3.1c-0.4,0.4-0.8,0.8-1.2,1.2c-0.3,0.2-0.6,0.5-0.8,0.7c-1.1,0.8-2.2,1.5-3.3,1.9
		c-0.2,0.1-0.3,0.1-0.5,0.2c-0.5,0.2-1,0.3-1.6,0.4c-0.2,0-0.3,0.1-0.5,0.1l-0.9,0.1l0.5,0.8c0.7,1.1,2.1,0.9,3.1,0.6
		c0.4,2.9,1,5.8,1.8,8.6c1,3.4,2.4,6.7,4.1,9.8c3.4,6.3,8,11.8,13.5,16.2c5.5,4.4,11.9,7.7,18.6,9.7c6.7,2,13.9,2.6,20.8,1.8
		c6.9-0.8,13.7-2.9,19.8-6.2c6.1-3.3,11.5-7.9,15.8-13.3c2.5-3.1,4.6-6.5,6.4-10.1l-1.5,0.4C124.9,80,122.9,83,120.6,85.7"/>
	<path class="st0" d="M155.8,19.2c0,0-0.1,0-0.1,0c-2.8,1.2-7.2,6.8-8.6,23.5c-0.8,9,2.6,14.7,3.4,17.8c1.4,5.4-3.4,18.1-4.4,24.2
		c-0.8,5,4,3.9,4,3.9c1.5-0.3,2.7-1.6,2.8-3.3l5.4-63.9C158.3,19.9,157,18.8,155.8,19.2"/>
	<path class="st0" d="M10.2,47.3c3.4-1.8,4.6-1.9,3.9-7.8c-0.5-4.7-2.2-13.7-3.6-18.6c0-0.2-0.2-0.3-0.4-0.3l-0.1,0
		c-0.2,0-0.3,0.2-0.3,0.4l2.1,20.1c0,0.3-0.2,0.6-0.5,0.6l-0.8,0.1c-0.2,0-0.4-0.1-0.4-0.4L7.5,21.2c0-0.2-0.2-0.3-0.3-0.3l-0.3,0
		c-0.2,0-0.3,0.2-0.3,0.4l1.9,20.3c0,0.2-0.1,0.4-0.4,0.4l-0.9,0.1c-0.2,0-0.4-0.1-0.4-0.3L4.1,21.6c0-0.2-0.2-0.3-0.4-0.3l-0.2,0
		c-0.2,0-0.3,0.2-0.3,0.4L5.1,42c0,0.2-0.2,0.5-0.4,0.5l-0.8,0.1c-0.3,0-0.5-0.2-0.5-0.4L0.9,21.9c0-0.2-0.2-0.3-0.3-0.3l-0.2,0
		c-0.2,0-0.3,0.2-0.3,0.3c-0.2,5,0.1,14.3,0.7,19c0.7,5.9,1.9,5.7,5.5,6.7L9.1,85c0.2,1.8,1.6,3.1,3.2,3.2l0,0c0.2,0,0.3,0,0.5,0
		c1.8-0.2,3.1-2,2.9-3.9L10.2,47.3z"/>
	<polygon class="st0" points="55.4,17.3 47.9,23.8 49.5,25.7 52.3,23.3 58.6,30.6 60.6,28.8 54.3,21.5 57.1,19.1 	"/>
	<path class="st0" d="M71.7,22.9l2.6-1.1l-9.5-9.3l-2.3,0.9l-0.1,13.2l2.5-1l0-2.9l4.7-2L71.7,22.9z M64.9,20.2l0-4.2l3,3L64.9,20.2
		z"/>
	<path class="st0" d="M81.7,19.3c-0.3,0.2-0.7,0.3-1.3,0.3c-0.7,0-1.3-0.1-1.9-0.4c-0.6-0.3-1.2-0.6-1.7-1l-1.5,1.9
		c0.7,0.6,1.5,1.1,2.4,1.4c0.9,0.3,1.8,0.4,2.7,0.4c0.7,0,1.3-0.1,1.8-0.3c0.5-0.2,1-0.4,1.4-0.7c0.4-0.3,0.7-0.7,0.9-1.2
		c0.2-0.5,0.3-1,0.3-1.6l0,0c0-0.5-0.1-1-0.3-1.4c-0.2-0.4-0.4-0.7-0.8-1c-0.3-0.3-0.7-0.5-1.2-0.7c-0.5-0.2-1-0.4-1.6-0.5
		c-0.5-0.1-1-0.2-1.3-0.3c-0.3-0.1-0.6-0.2-0.8-0.3c-0.2-0.1-0.3-0.2-0.4-0.4c-0.1-0.1-0.1-0.3-0.1-0.5v0c0-0.3,0.1-0.6,0.4-0.8
		c0.3-0.2,0.6-0.3,1.2-0.3c0.5,0,1,0.1,1.6,0.3c0.5,0.2,1.1,0.5,1.6,0.9l1.4-2c-0.6-0.5-1.3-0.9-2.1-1.1c-0.7-0.3-1.6-0.4-2.5-0.4
		c-0.6,0-1.2,0.1-1.7,0.3c-0.5,0.2-1,0.4-1.3,0.8c-0.4,0.3-0.7,0.7-0.9,1.2c-0.2,0.4-0.3,0.9-0.3,1.5v0c0,0.6,0.1,1.1,0.3,1.5
		c0.2,0.4,0.5,0.7,0.8,1c0.3,0.3,0.8,0.5,1.3,0.7c0.5,0.2,1.1,0.3,1.7,0.5c0.5,0.1,0.9,0.2,1.2,0.3c0.3,0.1,0.6,0.2,0.8,0.3
		c0.2,0.1,0.3,0.2,0.4,0.4c0.1,0.1,0.1,0.3,0.1,0.5l0,0C82.1,18.8,82,19.1,81.7,19.3"/>
	<polygon class="st0" points="89.7,23.2 92.2,13.8 95.7,14.7 96.3,12.4 86.6,9.8 86,12.2 89.6,13.1 87.2,22.5 	"/>
	<polygon class="st0" points="107.6,18.4 99.8,13.7 93.5,24 101.4,28.8 102.6,26.8 97,23.3 98.3,21.2 103.2,24.1 104.4,22.1 
		99.5,19.1 100.8,17 106.3,20.4 	"/>
	<path class="st0" d="M143.9,66.4c-1.9,1.6-2.5,1.7-2.7,1.6c-0.1,0-0.2,0-0.3-0.3c-0.1-0.3-0.2-0.7-0.1-1.2c0.1-0.6,0.3-1.4,0.7-2.4
		l0.4-1.1c0.5-1.3,0.8-2,1.3-3.4l0.4-1.1c0.3-0.8,0.5-1.5,0.6-1.9c0.1-0.9-0.1-1.7-0.6-2.3c-0.5-0.6-1.2-1-2.1-1.1
		c-1.4-0.1-2.8,0.3-4.3,1.4c-0.3,0.2-0.7,0.5-1,0.8c-1,0.9-2,1.9-3,3.2c-0.1,0.2-0.3,0.3-0.4,0.5c0.2-0.5,0.3-0.9,0.5-1.4
		c0.5-1.5,1-2.9,1.7-4.9l0.3-1l-1,0.3c-0.3,0.1-0.6,0.2-0.8,0.2c-0.2,0.1-0.5,0.1-0.7,0.2c-0.4,0.1-0.9,0.3-1.4,0.4l-0.3,0.1
		l-0.1,0.3c-1,3.5-2.1,7.3-3.3,11.5c-0.5,0.4-0.9,0.8-1.2,1c-0.7,0.5-1,0.5-1.1,0.5c-0.1,0-0.2,0-0.4-0.4c-0.2-0.3-0.2-0.7-0.2-1.2
		c0-0.6,0.3-1.4,0.6-2.5c1.4-4.1,2.1-6.1,3.6-10.2l0.3-0.9l0-0.1l0,0l-1,0.3c-1.2,0.4-1.7,0.5-2.9,0.9l-0.2,0.1l-0.2,0.4
		c-0.8-0.8-1.8-1.3-3.2-1.3c-1.6-0.1-3.3,0.5-5.1,1.7c-1.7,1.2-3.1,2.8-4.3,4.8c-0.2,0.3-0.3,0.6-0.5,0.9c-0.9,1.7-1.3,3.3-1.4,4.9
		c0,0.4,0,0.7,0,1.1c-0.7,0.6-1.1,0.7-1.3,0.7c-0.1,0-0.3,0-0.4-0.3c-0.2-0.3-0.2-0.7-0.2-1.2c0-0.4,0.2-1.4,0.7-3.5
		c0.7-2.6,1.4-5.1,2.2-7.7c2.4-8.3,4.8-16.5,7.4-24.7l0.3-1l-1,0.4c-1.4,0.5-2.1,0.8-3.5,1.3l-0.3,0.1l-0.1,0.3
		c-1.5,5.6-3,11.3-4.4,17c-0.5,1.8-0.9,3.5-1.3,5.3c-0.6-0.4-1.3-0.6-2-0.7c-0.3,0-0.6-0.1-0.9-0.1c-0.2,0-0.4,0-0.6,0
		c-1.5,0.1-3.1,0.7-4.6,1.8c-1.6,1.2-3,2.8-4,4.7c0,0.1-0.1,0.1-0.1,0.2c-1.1,2-1.6,4-1.6,5.9c0,0.4,0,0.8,0.1,1.1
		c-0.8,0.7-1.2,0.7-1.2,0.7c-0.1,0-0.2,0-0.5-0.4c-0.2-0.3-0.3-0.7-0.3-1.2c0-0.6,0.1-1.5,0.4-2.5c1.1-4.2,1.7-6.2,2.8-10.4l0.3-1
		l-1,0.4c-1.1,0.4-1.7,0.6-2.8,1.1l-0.2,0.1l-0.1,0.4c-0.8-0.7-1.9-1.1-3.3-1.1h0c-1.6,0-3.3,0.7-4.9,2.1c-1.6,1.3-2.9,3-4,5.1
		c-1,2-1.5,4-1.5,5.9c0,0.4,0,0.7,0.1,1.1c-0.8,0.8-1.2,0.8-1.3,0.9c-0.1,0-0.2,0-0.3-0.3c-0.2-0.3-0.3-0.7-0.3-1.2
		c0-0.5,0.1-1.4,0.3-2.5l0.3-1.1c0.3-1.4,0.5-2.1,0.8-3.5c0.4-1.6,0.5-2.7,0.5-3.4c0-0.9-0.3-1.6-0.8-2.2c-0.5-0.5-1.3-0.7-2.1-0.7
		c-1.5,0-2.9,0.9-4.3,2.5c-0.9,1-1.8,2.5-2.9,4.5c0-0.2,0.1-0.4,0.1-0.7c0.2-1.5,0.3-2.5,0.3-3.1c0-1-0.3-1.7-0.9-2.2
		c-0.5-0.5-1.2-0.7-2-0.6c-1.2,0.1-2.5,0.8-3.9,2.2c-0.3,0.3-0.6,0.7-1,1.1c-0.8,1-1.6,2.2-2.3,3.6c0.3-1.9,0.6-3.6,1.1-6.1l0.2-1
		l-1,0.5c-1.1,0.5-1.7,0.8-2.8,1.4l0,0l-0.2,0.1l0,0.3c-0.2,1.6-0.4,3.2-0.6,4.9c-0.3,2.2-0.5,4.5-0.8,7c-1.4,1.6-1.9,1.8-2,1.8
		c-0.1,0-0.2,0-0.5-0.3c-0.2-0.3-0.4-0.7-0.4-1.2c-0.1-0.6,0-1.5,0.2-2.6c0.7-4.2,1.1-6.3,1.9-10.6l0.2-1.1l-1,0.5
		c-1.1,0.5-1.6,0.8-2.7,1.3l-0.2,0.1l-0.1,0.4c-0.4-0.3-0.8-0.5-1.2-0.6c-0.6-0.2-1.3-0.3-2.1-0.2c-1.6,0.1-3.2,1-4.7,2.5
		c-1.5,1.5-2.6,3.3-3.5,5.4c-0.8,2.1-1.2,4.1-0.9,6c0.2,1.4,0.7,2.5,1.5,3.3c0.8,0.8,1.9,1.2,3.1,1c2-0.2,3.8-1.7,5.7-4.6
		c0.4-0.5,0.7-1.1,1-1.6c0,0,0-0.1,0.1-0.1c0,0.4-0.1,0.8-0.1,1.1c0,0.2,0,0.4,0,0.6c0,0.1,0,0.1,0,0.2c0.1,0.9,0.4,1.8,1,2.4
		c0.6,0.7,1.3,1.1,2.1,1c0.5,0,1.1-0.4,1.7-1c0.2-0.2,0.4-0.4,0.7-0.7c0,0.3-0.1,0.6-0.1,0.9l-0.1,0.9l0.8-0.4
		c0.7-0.3,1-0.4,1.7-0.7l0.3-0.1l0.1-0.3c0.2-1.1,0.4-2.1,0.7-3c0.1-0.2,0.1-0.5,0.2-0.7c0-0.1,0.1-0.3,0.1-0.4
		c0.3-0.9,0.6-1.8,0.9-2.6c0.4-1,0.9-2,1.5-3c0.7-1.2,1.3-2.3,2-3.1c0.2-0.2,0.4-0.5,0.6-0.7c1-1,1.6-1.2,1.9-1.2
		c0.3,0,0.3,0.1,0.4,0.1c0.1,0.1,0.2,0.3,0.2,0.6c0,0.3,0,0.7-0.1,1.3l-0.2,1c-0.5,3.5-0.8,5.7-1.2,8.5c-0.1,1-0.3,2-0.4,3.2
		l-0.1,0.9l0.8-0.3c0.1,0,0.2-0.1,0.3-0.1c0.5-0.2,0.9-0.3,1.5-0.6l0.3-0.1l0.1-0.3c0.4-2,0.9-3.8,1.4-5.2c0.5-1.4,1.2-3,2.1-4.6
		c0.6-1.1,1.2-2.1,1.8-2.9c0.5-0.7,1-1.2,1.5-1.6c0.4-0.3,0.8-0.5,1.1-0.5c0.2,0,0.4,0,0.5,0.1c0.1,0.1,0.2,0.2,0.2,0.4
		c0,0.3,0,0.7-0.1,1.3L75,56c-0.4,2.4-0.5,3.6-0.9,5.9c-0.2,1.3-0.3,2.2-0.3,2.8c0,1,0.3,1.8,0.8,2.5c0.5,0.7,1.2,1.1,2,1.1
		c0.6,0,1.2-0.3,1.8-0.8c0.3-0.2,0.6-0.6,1-1c0.1,0.2,0.2,0.3,0.3,0.5c0.8,0.9,1.8,1.3,3,1.3c2,0,4-1.3,6.1-4
		c0.4-0.5,0.8-1.1,1.2-1.6c-0.1,0.8-0.2,1.4-0.2,1.8c0,0.9,0.3,1.8,0.8,2.5c0.6,0.8,1.2,1.2,2,1.2h0c0.5,0,1.1-0.3,1.8-0.8
		c0.1-0.1,0.2-0.2,0.3-0.2c0.2-0.2,0.5-0.4,0.7-0.7c0.1,0.2,0.2,0.3,0.3,0.5c0.7,0.9,1.7,1.4,3,1.4c1.2,0,2.3-0.4,3.5-1.2
		c0.8-0.5,1.5-1.2,2.3-2.1c0.1-0.1,0.2-0.3,0.4-0.4c0.3-0.4,0.6-0.7,0.8-1.1c-0.1,0.5-0.1,0.9-0.2,1.2c0,0.9,0.2,1.8,0.6,2.5
		c0.5,0.8,1.2,1.3,2,1.3c0.4,0,0.7-0.1,1-0.2c0.3-0.1,0.7-0.4,1.2-0.9l0.4-0.4l0.2-0.2c0.1,0.2,0.2,0.4,0.3,0.5
		c0.7,0.9,1.7,1.5,2.9,1.5c2,0.1,4.1-1.1,6.4-3.6c0.5-0.5,0.9-1,1.3-1.6c-0.2,0.8-0.3,1.4-0.4,1.8c-0.1,0.9,0.1,1.8,0.6,2.6
		c0.5,0.8,1.2,1.3,1.9,1.3c0.5,0,1.1-0.2,1.7-0.6c0,0,0.1,0,0.1-0.1c0.2-0.2,0.5-0.4,0.8-0.6c-0.1,0.3-0.2,0.6-0.2,0.9l-0.2,0.9
		l0.9-0.2c0.8-0.2,1.2-0.3,2-0.4l0.3-0.1l0.4-1c0.5-1.1,1-2.2,1.4-3c0.4-0.8,0.8-1.6,1.2-2.2c0.1-0.1,0.1-0.2,0.2-0.3
		c0.7-1.1,1.5-2.2,2.5-3.3c0.5-0.6,1-1.1,1.4-1.5c1.8-1.7,2.9-2.1,3.6-2c0.2,0,0.4,0.1,0.5,0.2c0,0,0.1,0.2,0.1,0.5
		c0,0.3-0.2,1-0.4,1.9c-0.7,2.4-1.1,3.5-1.8,5.9c-0.4,1.2-0.6,2.1-0.7,2.8c-0.1,1,0,1.9,0.4,2.6c0.4,0.8,1,1.3,1.8,1.3
		c0.1,0,0.1,0,0.2,0c0.5,0,1.1-0.2,1.7-0.6c0.6-0.4,1.5-1.1,2.8-2.3l0.8-0.6l-1.1-1.2L143.9,66.4z M100,65.8
		C100,65.8,100,65.8,100,65.8c-0.6,0-0.9-0.2-1.2-0.6c-0.3-0.5-0.5-1.1-0.5-1.9c0-1,0.2-2.1,0.6-3.3c0.4-1.3,0.9-2.4,1.6-3.4
		c0.8-1.4,1.8-2.4,2.7-3.2c0.7-0.6,1.5-0.9,2.1-1c0.1,0,0.2,0,0.3,0c0,0,0.1,0,0.1,0c0.4,0,0.7,0.1,1,0.2c0.2,0.1,0.3,0.1,0.5,0.2
		c0.4,0.2,0.6,0.5,0.8,0.8l-0.3,1.3c-0.2,0.7-0.5,1.8-1.1,3.4c-0.1,0.2-0.1,0.3-0.2,0.5c-0.4,0.9-0.8,1.7-1.4,2.6
		c-0.3,0.4-0.6,0.8-0.9,1.2c-0.7,0.9-1.3,1.6-2,2.1C101.4,65.4,100.6,65.8,100,65.8 M118,65.3c-0.9,0.7-1.7,1-2.5,1
		c-0.5,0-0.9-0.2-1.1-0.7c-0.3-0.5-0.4-1.1-0.4-2c0-0.8,0.3-1.8,0.8-3c0.5-1.3,1.1-2.4,1.7-3.4c0.8-1.3,1.7-2.2,2.7-2.9
		c0.8-0.6,1.6-0.9,2.3-0.9c0.1,0,0.1,0,0.2,0c0.6,0,1.1,0.2,1.6,0.6c0.4,0.3,0.7,0.8,0.9,1.3l-0.3,0.8c-0.5,1.5-1,2.7-1.4,3.5v0
		c-0.4,0.8-0.9,1.6-1.5,2.4C119.9,63.5,118.9,64.6,118,65.3 M86.2,64.4c-0.9,0.7-1.7,1.1-2.4,1.1h0c-0.5,0-0.9-0.2-1.1-0.6
		c-0.3-0.5-0.5-1.1-0.5-2c0-0.8,0.2-1.8,0.5-3.1c0.4-1.3,0.9-2.5,1.5-3.5c0.7-1.3,1.6-2.3,2.5-3.1c0.9-0.7,1.7-1,2.4-1h0
		c0.6,0,1.1,0.2,1.6,0.5c0.4,0.3,0.7,0.7,0.9,1.3l-0.2,0.8v0c-0.4,1.5-0.8,2.7-1.1,3.6c-0.3,0.8-0.8,1.7-1.3,2.5
		C88,62.5,87.1,63.6,86.2,64.4 M41.9,67.5c-0.4-0.4-0.6-1.1-0.7-1.9c-0.1-0.8,0-1.9,0.3-3.1c0.3-1.3,0.7-2.5,1.1-3.6
		c0.6-1.4,1.4-2.5,2.2-3.3c0.8-0.8,1.6-1.2,2.3-1.3c0.1,0,0.2,0,0.3,0c0.5,0,0.9,0.1,1.4,0.4c0.1,0.1,0.2,0.1,0.2,0.2
		c0.3,0.3,0.6,0.6,0.8,1l-0.1,0.9C49.4,58,49.2,59.1,49,60c0,0.1-0.1,0.3-0.1,0.4c-0.2,0.9-0.6,1.7-1.1,2.6
		c-0.8,1.5-1.6,2.8-2.4,3.6c-0.8,0.8-1.6,1.3-2.3,1.3C42.6,68,42.2,67.9,41.9,67.5"/>
	<path class="st0" d="M44,76.1c-0.1-0.2-0.2-0.4-0.3-0.7c-0.1-0.3-0.1-0.5,0-0.8l0.6,0c0,0.2,0,0.4,0,0.6c0,0.2,0.1,0.4,0.2,0.5
		c0.1,0.1,0.2,0.2,0.3,0.3c0.1,0,0.2,0,0.3,0l0,0c0.1,0,0.1-0.1,0.1-0.1c0-0.1,0-0.1,0-0.2c0-0.1,0-0.2,0-0.3c0-0.1,0-0.2-0.1-0.3
		c0-0.1-0.1-0.3-0.1-0.4c0-0.1,0-0.3,0-0.4c0-0.1,0-0.2,0.1-0.4c0.1-0.1,0.2-0.2,0.3-0.3l0,0c0.1-0.1,0.3-0.1,0.4-0.1
		c0.1,0,0.3,0,0.4,0c0.1,0,0.3,0.1,0.4,0.2c0.1,0.1,0.2,0.2,0.3,0.4c0.1,0.2,0.2,0.4,0.3,0.6c0.1,0.2,0.1,0.4,0.1,0.7l-0.6,0
		c0-0.2,0-0.4-0.1-0.5c0-0.2-0.1-0.3-0.2-0.4c-0.1-0.1-0.2-0.2-0.3-0.2c-0.1,0-0.2,0-0.3,0l0,0c-0.1,0-0.1,0.1-0.1,0.1
		c0,0.1,0,0.1,0,0.2c0,0.1,0,0.2,0,0.3c0,0.1,0,0.2,0.1,0.3c0,0.1,0.1,0.3,0.1,0.4c0,0.1,0,0.3,0,0.4c0,0.1,0,0.2-0.1,0.4
		c-0.1,0.1-0.2,0.2-0.3,0.3l0,0c-0.2,0.1-0.3,0.2-0.4,0.2c-0.1,0-0.3,0-0.4-0.1c-0.1,0-0.3-0.1-0.4-0.2C44.2,76.4,44.1,76.2,44,76.1
		"/>
	<path class="st0" d="M48.9,75l0.5,0.6l-1.5,1.1c0.1,0,0.2,0,0.3,0c0.1,0,0.2,0,0.3,0.1c0.1,0,0.2,0.1,0.3,0.2
		c0.1,0.1,0.2,0.2,0.3,0.3c0.2,0.3,0.3,0.6,0.3,0.9c-0.1,0.3-0.3,0.6-0.6,0.8L47,80.3l-0.5-0.6l1.5-1.2c0.2-0.2,0.3-0.3,0.4-0.5
		c0-0.2,0-0.4-0.1-0.6c-0.1-0.2-0.3-0.3-0.5-0.3c-0.2,0-0.4,0-0.6,0.2l-1.5,1.1l-0.5-0.6L48.9,75z"/>
	<path class="st0" d="M49,82.6l0.3-0.3c-0.2,0-0.4,0-0.6-0.1c-0.2-0.1-0.4-0.2-0.5-0.4c-0.1-0.1-0.2-0.3-0.3-0.4
		c-0.1-0.1-0.1-0.3-0.1-0.4c0-0.1,0-0.3,0.1-0.4c0.1-0.1,0.1-0.3,0.3-0.4l0,0c0.1-0.1,0.3-0.2,0.4-0.3c0.1,0,0.3,0,0.5,0
		c0.2,0,0.3,0.1,0.4,0.2c0.1,0.1,0.3,0.2,0.4,0.4c0.1,0.2,0.2,0.3,0.3,0.4c0.1,0.1,0.1,0.3,0.2,0.4l0,0c0.2-0.2,0.3-0.3,0.3-0.5
		c0-0.2-0.1-0.4-0.3-0.6c-0.1-0.1-0.3-0.3-0.4-0.3s-0.3-0.2-0.4-0.2L50,79c0.2,0.1,0.4,0.2,0.5,0.3c0.2,0.1,0.3,0.3,0.5,0.5
		c0.3,0.4,0.5,0.7,0.5,1.1c0,0.4-0.2,0.7-0.5,1l-1.5,1.4L49,82.6z M50.1,81.6c0-0.1-0.1-0.2-0.2-0.3c-0.1-0.1-0.2-0.2-0.3-0.3
		c-0.2-0.2-0.3-0.3-0.5-0.3c-0.2,0-0.3,0-0.4,0.1l0,0c-0.1,0.1-0.2,0.2-0.1,0.4c0,0.1,0.1,0.3,0.2,0.4c0.1,0.1,0.2,0.2,0.3,0.2
		c0.1,0.1,0.2,0.1,0.3,0.1c0.1,0,0.2,0,0.3,0c0.1,0,0.2-0.1,0.3-0.1L50.1,81.6z"/>
	<path class="st0" d="M52.5,81.4l0.6,0.5l-0.5,0.6c0.3-0.1,0.5-0.2,0.8-0.1c0.3,0,0.5,0.1,0.7,0.4l-0.6,0.6l0,0
		C53.3,83.1,53.2,83,53,83c-0.1-0.1-0.3-0.1-0.4-0.1c-0.2,0-0.3,0.1-0.5,0.1c-0.2,0.1-0.3,0.2-0.5,0.4l-0.9,0.9l-0.6-0.5L52.5,81.4z
		"/>
	<path class="st0" d="M53.3,86.7c-0.2-0.2-0.3-0.3-0.5-0.5c-0.1-0.2-0.2-0.4-0.2-0.6c0-0.2,0-0.4,0.1-0.7c0.1-0.2,0.2-0.4,0.4-0.6
		l0,0c0.2-0.2,0.3-0.3,0.5-0.5c0.2-0.1,0.4-0.2,0.6-0.2c0.2,0,0.4,0,0.6,0c0.2,0.1,0.4,0.2,0.6,0.3c0.2,0.2,0.4,0.4,0.5,0.6
		c0.1,0.2,0.1,0.4,0.1,0.6c0,0.2,0,0.4-0.1,0.6c-0.1,0.2-0.2,0.4-0.4,0.6c0,0,0,0.1-0.1,0.1c0,0-0.1,0.1-0.1,0.1l-1.9-1.6
		c-0.1,0.2-0.2,0.5-0.1,0.7c0,0.2,0.2,0.4,0.4,0.6c0.1,0.1,0.3,0.2,0.5,0.2c0.2,0,0.3,0,0.5,0l0.1,0.6c-0.2,0-0.5,0-0.7,0
		C53.8,87,53.5,86.9,53.3,86.7 M55.2,85.6c0.1-0.1,0.1-0.2,0.2-0.3c0-0.1,0.1-0.2,0-0.3c0-0.1,0-0.2-0.1-0.3c0-0.1-0.1-0.2-0.2-0.3
		c-0.2-0.2-0.4-0.2-0.6-0.2c-0.2,0-0.4,0.1-0.6,0.3L55.2,85.6z"/>
	<path class="st0" d="M58.3,86.9L58,86.7l0.4-0.5l0.4,0.2l0.1-0.2c0.2-0.3,0.4-0.5,0.7-0.6c0.3-0.1,0.5,0,0.8,0.2
		c0.1,0.1,0.2,0.1,0.3,0.2c0.1,0.1,0.1,0.1,0.2,0.2l-0.4,0.6c-0.1-0.1-0.1-0.1-0.2-0.2c-0.1-0.1-0.1-0.1-0.2-0.1
		c-0.3-0.2-0.5-0.1-0.7,0.2l-0.1,0.2l0.8,0.5l-0.3,0.5L59,87.3l-1.5,2.3l-0.7-0.4L58.3,86.9z"/>
	<path class="st0" d="M60.2,91.3c-0.2-0.1-0.4-0.3-0.6-0.5c-0.2-0.2-0.3-0.4-0.3-0.6c-0.1-0.2-0.1-0.4-0.1-0.7
		c0-0.2,0.1-0.5,0.2-0.7l0,0c0.1-0.2,0.3-0.4,0.4-0.5c0.2-0.1,0.4-0.3,0.6-0.3c0.2-0.1,0.4-0.1,0.7-0.1c0.2,0,0.5,0.1,0.7,0.2
		c0.2,0.1,0.4,0.3,0.6,0.5c0.2,0.2,0.3,0.4,0.3,0.6c0.1,0.2,0.1,0.4,0.1,0.7c0,0.2-0.1,0.5-0.2,0.7l0,0c-0.1,0.2-0.3,0.4-0.4,0.5
		c-0.2,0.1-0.4,0.3-0.6,0.3c-0.2,0.1-0.4,0.1-0.7,0.1C60.6,91.5,60.4,91.4,60.2,91.3 M60.5,90.7c0.1,0.1,0.3,0.1,0.4,0.1
		c0.1,0,0.3,0,0.4-0.1s0.2-0.1,0.3-0.2c0.1-0.1,0.2-0.2,0.3-0.3l0,0c0.1-0.1,0.1-0.3,0.1-0.4c0-0.1,0-0.3,0-0.4
		c0-0.1-0.1-0.3-0.2-0.4c-0.1-0.1-0.2-0.2-0.3-0.3c-0.1-0.1-0.3-0.1-0.4-0.1c-0.1,0-0.3,0-0.4,0c-0.1,0-0.2,0.1-0.3,0.2
		c-0.1,0.1-0.2,0.2-0.3,0.3l0,0C60,89.4,60,89.5,60,89.6c0,0.1,0,0.3,0,0.4c0,0.1,0.1,0.3,0.2,0.4C60.3,90.5,60.4,90.6,60.5,90.7"/>
	<path class="st0" d="M64.1,93.1c-0.2-0.1-0.4-0.2-0.6-0.4c-0.2-0.2-0.3-0.4-0.4-0.6c-0.1-0.2-0.1-0.4-0.1-0.7c0-0.2,0-0.5,0.1-0.7
		l0,0c0.1-0.2,0.2-0.4,0.4-0.6c0.2-0.2,0.4-0.3,0.6-0.4c0.2-0.1,0.4-0.1,0.7-0.1c0.2,0,0.5,0,0.7,0.1c0.2,0.1,0.4,0.2,0.6,0.4
		c0.2,0.2,0.3,0.4,0.4,0.6c0.1,0.2,0.1,0.4,0.1,0.7c0,0.2,0,0.5-0.1,0.7l0,0c-0.1,0.2-0.2,0.4-0.4,0.6c-0.2,0.2-0.4,0.3-0.6,0.4
		c-0.2,0.1-0.4,0.1-0.7,0.1S64.3,93.2,64.1,93.1 M64.3,92.5c0.1,0.1,0.3,0.1,0.4,0.1c0.1,0,0.3,0,0.4-0.1c0.1-0.1,0.2-0.1,0.3-0.2
		c0.1-0.1,0.2-0.2,0.2-0.4l0,0c0.1-0.1,0.1-0.3,0.1-0.4c0-0.1,0-0.3-0.1-0.4c0-0.1-0.1-0.2-0.2-0.3c-0.1-0.1-0.2-0.2-0.4-0.2
		c-0.1-0.1-0.3-0.1-0.4-0.1c-0.1,0-0.3,0-0.4,0.1c-0.1,0.1-0.2,0.1-0.3,0.2c-0.1,0.1-0.2,0.2-0.2,0.4l0,0c-0.1,0.1-0.1,0.3-0.1,0.4
		s0,0.3,0.1,0.4c0,0.1,0.1,0.2,0.2,0.3C64.1,92.4,64.2,92.5,64.3,92.5"/>
	<path class="st0" d="M67.9,94.5c-0.2-0.1-0.4-0.2-0.5-0.3c-0.2-0.1-0.3-0.3-0.4-0.5c-0.1-0.2-0.2-0.4-0.2-0.6c0-0.2,0-0.5,0.1-0.8
		l0,0c0.1-0.3,0.2-0.5,0.3-0.7c0.1-0.2,0.3-0.3,0.5-0.4c0.2-0.1,0.4-0.2,0.6-0.2c0.2,0,0.4,0,0.6,0.1c0.3,0.1,0.5,0.2,0.6,0.4
		c0.1,0.2,0.2,0.3,0.3,0.5l0.5-1.8l0.8,0.2L69.8,95L69,94.8l0.2-0.5c-0.2,0.1-0.4,0.2-0.6,0.3C68.4,94.6,68.2,94.6,67.9,94.5
		 M68.3,93.9c0.1,0,0.3,0,0.4,0c0.1,0,0.3-0.1,0.4-0.1c0.1-0.1,0.2-0.2,0.3-0.3c0.1-0.1,0.2-0.2,0.2-0.4l0,0c0-0.2,0.1-0.3,0.1-0.5
		c0-0.1,0-0.3-0.1-0.4c-0.1-0.1-0.1-0.2-0.2-0.3c-0.1-0.1-0.2-0.1-0.3-0.2c-0.1,0-0.3-0.1-0.4,0c-0.1,0-0.2,0.1-0.4,0.1
		c-0.1,0.1-0.2,0.2-0.3,0.3c-0.1,0.1-0.2,0.3-0.2,0.4l0,0c0,0.2-0.1,0.3-0.1,0.5c0,0.1,0,0.3,0.1,0.4c0.1,0.1,0.1,0.2,0.2,0.3
		C68.1,93.8,68.2,93.9,68.3,93.9"/>
	
		<rect x="73.4" y="92.9" transform="matrix(0.1705 -0.9854 0.9854 0.1705 -31.2807 150.4839)" class="st0" width="0.8" height="1.9"/>
	<path class="st0" d="M78.2,96.4c-0.2,0-0.5-0.1-0.7-0.2S77,96,76.8,95.8l0.4-0.5c0.2,0.1,0.4,0.3,0.5,0.3c0.2,0.1,0.4,0.1,0.5,0.1
		c0.2,0,0.3,0,0.4-0.1c0.1-0.1,0.1-0.1,0.2-0.3l0,0c0-0.1,0-0.1-0.1-0.2c0,0-0.1-0.1-0.2-0.1c-0.1,0-0.1-0.1-0.2-0.1
		c-0.1,0-0.2-0.1-0.3-0.1c-0.1,0-0.2-0.1-0.4-0.1c-0.1-0.1-0.2-0.1-0.3-0.2c-0.1-0.1-0.2-0.2-0.2-0.3c-0.1-0.1-0.1-0.3-0.1-0.4v0
		c0-0.2,0-0.3,0.1-0.4c0.1-0.1,0.2-0.2,0.3-0.3c0.1-0.1,0.2-0.1,0.4-0.2c0.2,0,0.3-0.1,0.5,0c0.2,0,0.4,0.1,0.6,0.1
		c0.2,0.1,0.4,0.2,0.6,0.3l-0.3,0.5c-0.2-0.1-0.3-0.2-0.5-0.3c-0.2-0.1-0.3-0.1-0.5-0.1c-0.2,0-0.3,0-0.4,0.1
		c-0.1,0.1-0.1,0.1-0.1,0.2l0,0c0,0.1,0,0.1,0.1,0.2c0,0,0.1,0.1,0.2,0.1c0.1,0,0.1,0.1,0.2,0.1c0.1,0,0.2,0.1,0.3,0.1
		c0.1,0,0.2,0.1,0.4,0.2c0.1,0.1,0.2,0.1,0.3,0.2c0.1,0.1,0.2,0.2,0.2,0.3c0.1,0.1,0.1,0.2,0.1,0.4l0,0c0,0.2-0.1,0.3-0.1,0.5
		c-0.1,0.1-0.2,0.2-0.3,0.3c-0.1,0.1-0.3,0.1-0.4,0.2C78.5,96.4,78.4,96.4,78.2,96.4"/>
	<path class="st0" d="M80.2,91.7l0.8,0l0,1.8c0.1-0.1,0.1-0.2,0.2-0.2c0.1-0.1,0.1-0.1,0.2-0.2c0.1-0.1,0.2-0.1,0.3-0.1
		c0.1,0,0.2-0.1,0.4-0.1c0.4,0,0.7,0.1,0.9,0.3c0.2,0.2,0.3,0.5,0.3,0.9l0,2.2l-0.8,0l0-1.9c0-0.3-0.1-0.5-0.2-0.6
		c-0.1-0.1-0.3-0.2-0.5-0.2c-0.2,0-0.4,0.1-0.5,0.2C81.1,94,81,94.2,81,94.5l0,1.9l-0.8,0L80.2,91.7z"/>
	<path class="st0" d="M86.4,96l0-0.4c-0.1,0.1-0.2,0.3-0.4,0.4c-0.2,0.1-0.4,0.2-0.6,0.2c-0.2,0-0.3,0-0.5,0c-0.1,0-0.3-0.1-0.4-0.2
		c-0.1-0.1-0.2-0.2-0.3-0.3c-0.1-0.1-0.1-0.3-0.2-0.4l0,0c0-0.2,0-0.4,0-0.5c0.1-0.1,0.1-0.3,0.2-0.4c0.1-0.1,0.2-0.2,0.4-0.3
		c0.2-0.1,0.3-0.1,0.5-0.1c0.2,0,0.4,0,0.5,0c0.1,0,0.3,0,0.4,0.1l0-0.1c0-0.2-0.1-0.4-0.3-0.5c-0.2-0.1-0.4-0.1-0.6-0.1
		c-0.2,0-0.4,0.1-0.5,0.1c-0.1,0.1-0.3,0.1-0.4,0.2L84,93.1c0.2-0.1,0.4-0.2,0.6-0.3c0.2-0.1,0.4-0.1,0.7-0.2c0.5-0.1,0.9,0,1.2,0.2
		c0.3,0.2,0.4,0.6,0.5,1l0.2,2L86.4,96z M86.2,94.6c-0.1,0-0.2,0-0.4-0.1c-0.1,0-0.3,0-0.4,0c-0.2,0-0.4,0.1-0.6,0.2
		c-0.1,0.1-0.2,0.2-0.2,0.4l0,0c0,0.2,0.1,0.3,0.2,0.4c0.1,0.1,0.3,0.1,0.5,0.1c0.1,0,0.2,0,0.4-0.1c0.1,0,0.2-0.1,0.3-0.2
		c0.1-0.1,0.1-0.2,0.2-0.2c0-0.1,0-0.2,0-0.3L86.2,94.6z"/>
	<path class="st0" d="M87.4,92.4l0.8-0.1l0.1,0.8c0.1-0.3,0.2-0.5,0.3-0.7c0.2-0.2,0.4-0.3,0.7-0.3l0.2,0.8l0,0
		c-0.2,0-0.3,0.1-0.4,0.2c-0.1,0.1-0.2,0.2-0.3,0.3c-0.1,0.1-0.1,0.3-0.2,0.5c0,0.2,0,0.4,0,0.6l0.2,1.3l-0.8,0.1L87.4,92.4z"/>
	<path class="st0" d="M92.2,94.9C92,95,91.8,95,91.5,95c-0.2,0-0.4-0.1-0.6-0.2c-0.2-0.1-0.4-0.3-0.5-0.4c-0.1-0.2-0.3-0.4-0.3-0.7
		l0,0C90,93.4,90,93.2,90,93c0-0.2,0.1-0.4,0.2-0.6c0.1-0.2,0.2-0.4,0.4-0.5c0.2-0.1,0.4-0.2,0.6-0.3c0.3-0.1,0.5-0.1,0.7,0
		c0.2,0,0.4,0.1,0.6,0.3c0.2,0.1,0.3,0.3,0.4,0.5c0.1,0.2,0.2,0.4,0.3,0.6c0,0,0,0.1,0,0.1c0,0,0,0.1,0,0.1l-2.4,0.7
		c0.1,0.3,0.3,0.4,0.5,0.5c0.2,0.1,0.4,0.1,0.7,0c0.2-0.1,0.3-0.1,0.5-0.2c0.1-0.1,0.2-0.2,0.3-0.4l0.5,0.3
		c-0.1,0.2-0.3,0.4-0.4,0.6C92.8,94.7,92.5,94.8,92.2,94.9 M92.5,92.8c0-0.1-0.1-0.2-0.2-0.3c-0.1-0.1-0.2-0.2-0.2-0.2
		c-0.1-0.1-0.2-0.1-0.3-0.1c-0.1,0-0.2,0-0.4,0c-0.2,0.1-0.4,0.2-0.5,0.4c-0.1,0.2-0.1,0.4-0.1,0.7L92.5,92.8z"/>
	<path class="st0" d="M95.4,90.9L95,91.1l-0.2-0.6l0.4-0.2L95,90.1c-0.1-0.4-0.1-0.6,0-0.9c0.1-0.2,0.3-0.4,0.6-0.5
		c0.1,0,0.2-0.1,0.3-0.1c0.1,0,0.2,0,0.3,0l0.2,0.6c-0.1,0-0.2,0-0.2,0c-0.1,0-0.1,0-0.2,0.1c-0.3,0.1-0.4,0.3-0.2,0.6l0.1,0.2
		l0.8-0.3l0.2,0.6l-0.8,0.3l1,2.6l-0.7,0.3L95.4,90.9z"/>
	<path class="st0" d="M97,89.6l0.7-0.3l0.3,0.7c0-0.3,0-0.5,0.2-0.8c0.1-0.2,0.3-0.4,0.6-0.5l0.3,0.7l0,0c-0.2,0.1-0.3,0.2-0.4,0.3
		c-0.1,0.1-0.2,0.2-0.2,0.4c0,0.1-0.1,0.3,0,0.5c0,0.2,0.1,0.4,0.2,0.6l0.5,1.2l-0.7,0.3L97,89.6z"/>
	<path class="st0" d="M98.6,87.4l0.7-0.4l0.3,0.7L98.9,88L98.6,87.4z M99.2,88.5l0.7-0.4l1.6,3l-0.7,0.4L99.2,88.5z"/>
	<path class="st0" d="M103.7,89.9c-0.2,0.1-0.4,0.2-0.7,0.3c-0.2,0-0.4,0-0.7,0c-0.2,0-0.4-0.1-0.6-0.3c-0.2-0.1-0.4-0.3-0.5-0.5
		l0,0c-0.1-0.2-0.2-0.4-0.3-0.7c0-0.2,0-0.4,0-0.7c0-0.2,0.1-0.4,0.2-0.6c0.1-0.2,0.3-0.3,0.5-0.5c0.2-0.1,0.5-0.2,0.7-0.2
		c0.2,0,0.4,0,0.6,0.1c0.2,0.1,0.4,0.2,0.6,0.3c0.2,0.2,0.3,0.3,0.5,0.5c0,0,0,0.1,0.1,0.1c0,0,0,0.1,0.1,0.1l-2.1,1.3
		c0.2,0.2,0.4,0.3,0.6,0.4c0.2,0,0.5,0,0.7-0.2c0.2-0.1,0.3-0.2,0.4-0.4c0.1-0.1,0.1-0.3,0.2-0.5l0.6,0.1c0,0.3-0.1,0.5-0.3,0.7
		C104.2,89.6,104,89.7,103.7,89.9 M103.3,87.8c-0.1-0.1-0.2-0.2-0.3-0.3c-0.1-0.1-0.2-0.1-0.3-0.1c-0.1,0-0.2,0-0.3,0
		c-0.1,0-0.2,0.1-0.3,0.1c-0.2,0.1-0.3,0.3-0.4,0.5c0,0.2,0,0.5,0.1,0.7L103.3,87.8z"/>
	<path class="st0" d="M103.7,85.8l0.6-0.5l0.3,0.4c0-0.1,0-0.2,0-0.3c0-0.1,0-0.2,0.1-0.3c0-0.1,0.1-0.2,0.2-0.3
		c0.1-0.1,0.1-0.2,0.3-0.3c0.3-0.2,0.6-0.3,0.9-0.3c0.3,0.1,0.6,0.3,0.8,0.6l1.3,1.7l-0.6,0.5l-1.2-1.5c-0.2-0.2-0.3-0.3-0.5-0.4
		c-0.2,0-0.4,0-0.6,0.1c-0.2,0.1-0.3,0.3-0.3,0.5c0,0.2,0,0.4,0.2,0.6l1.2,1.5l-0.6,0.5L103.7,85.8z"/>
	<path class="st0" d="M110,85.2c-0.1,0.1-0.3,0.2-0.5,0.3c-0.2,0.1-0.4,0.1-0.6,0.1c-0.2,0-0.4-0.1-0.6-0.2
		c-0.2-0.1-0.4-0.3-0.6-0.5l0,0c-0.2-0.2-0.3-0.4-0.4-0.6c-0.1-0.2-0.1-0.4-0.1-0.6c0-0.2,0.1-0.4,0.1-0.6c0.1-0.2,0.2-0.3,0.4-0.5
		c0.2-0.2,0.4-0.3,0.6-0.3c0.2,0,0.4,0,0.6,0l-1.2-1.3l0.6-0.5l3.2,3.5l-0.6,0.5l-0.4-0.4c0,0.2,0,0.4,0,0.6
		C110.3,84.8,110.2,85,110,85.2 M109.7,84.5c0.1-0.1,0.2-0.2,0.2-0.3c0.1-0.1,0.1-0.2,0.1-0.4c0-0.1,0-0.3-0.1-0.4
		c-0.1-0.1-0.1-0.3-0.2-0.4l0,0c-0.1-0.1-0.2-0.2-0.4-0.3c-0.1-0.1-0.3-0.1-0.4-0.1c-0.1,0-0.3,0-0.4,0.1c-0.1,0-0.2,0.1-0.3,0.2
		c-0.1,0.1-0.2,0.2-0.2,0.3c-0.1,0.1-0.1,0.2-0.1,0.4c0,0.1,0,0.3,0.1,0.4c0.1,0.1,0.1,0.3,0.3,0.4l0,0c0.1,0.1,0.2,0.2,0.4,0.3
		c0.1,0.1,0.3,0.1,0.4,0.1c0.1,0,0.3,0,0.4,0C109.5,84.7,109.6,84.6,109.7,84.5"/>
	<path class="st0" d="M112.9,82.2c-0.2,0.2-0.4,0.3-0.6,0.5c-0.2,0.1-0.5,0.2-0.8,0.3l-0.2-0.6c0.2,0,0.4-0.1,0.6-0.2
		c0.2-0.1,0.3-0.2,0.4-0.3c0.1-0.1,0.2-0.2,0.2-0.4c0-0.1,0-0.2-0.1-0.3l0,0c0,0-0.1-0.1-0.2-0.1c-0.1,0-0.1,0-0.2,0
		c-0.1,0-0.2,0.1-0.2,0.1c-0.1,0-0.2,0.1-0.3,0.2c-0.1,0.1-0.2,0.1-0.3,0.2c-0.1,0.1-0.2,0.1-0.4,0.1c-0.1,0-0.2,0-0.4,0
		c-0.1,0-0.2-0.1-0.4-0.2l0,0c-0.1-0.1-0.2-0.2-0.3-0.4c-0.1-0.1-0.1-0.3-0.1-0.4c0-0.1,0-0.3,0.1-0.4c0.1-0.1,0.2-0.3,0.3-0.4
		c0.1-0.2,0.3-0.3,0.5-0.4c0.2-0.1,0.4-0.2,0.6-0.3l0.2,0.6c-0.2,0.1-0.4,0.1-0.5,0.2c-0.2,0.1-0.3,0.2-0.4,0.3
		c-0.1,0.1-0.2,0.2-0.2,0.3c0,0.1,0,0.2,0.1,0.3l0,0c0,0,0.1,0.1,0.2,0.1c0.1,0,0.1,0,0.2,0c0.1,0,0.2-0.1,0.2-0.1
		c0.1,0,0.2-0.1,0.3-0.1c0.1-0.1,0.2-0.1,0.4-0.2c0.1-0.1,0.2-0.1,0.4-0.1c0.1,0,0.2,0,0.4,0c0.1,0,0.2,0.1,0.4,0.2l0,0
		c0.1,0.1,0.2,0.2,0.3,0.4c0.1,0.1,0.1,0.3,0.1,0.4c0,0.1-0.1,0.3-0.1,0.4C113.1,82,113,82.1,112.9,82.2"/>
	<path class="st0" d="M110.5,77.8l0.5-0.6l1.5,1.1c0-0.1-0.1-0.2-0.1-0.3c0-0.1,0-0.2,0-0.3c0-0.1,0-0.2,0.1-0.3
		c0-0.1,0.1-0.2,0.2-0.3c0.2-0.3,0.5-0.5,0.8-0.5c0.3,0,0.6,0.1,0.9,0.3l1.7,1.3l-0.5,0.6l-1.5-1.2c-0.2-0.2-0.4-0.2-0.6-0.2
		c-0.2,0-0.4,0.1-0.5,0.3c-0.1,0.2-0.2,0.4-0.2,0.6c0,0.2,0.2,0.4,0.4,0.5l1.5,1.2l-0.5,0.6L110.5,77.8z"/>
	<path class="st0" d="M112.8,74.8l0.5-0.7l0.6,0.4l-0.5,0.7L112.8,74.8z M113.8,75.5l0.4-0.7l2.8,1.9l-0.4,0.7L113.8,75.5z"/>
	<path class="st0" d="M114.7,74.2l0.4-0.7l0.5,0.3c-0.1-0.2-0.2-0.4-0.2-0.6c0-0.2,0-0.5,0.2-0.7c0.1-0.2,0.2-0.3,0.4-0.5
		c0.2-0.1,0.3-0.2,0.5-0.3c0.2-0.1,0.4-0.1,0.7,0c0.2,0,0.5,0.1,0.7,0.3l0,0c0.2,0.1,0.4,0.3,0.6,0.5c0.1,0.2,0.3,0.4,0.3,0.6
		c0.1,0.2,0.1,0.4,0,0.6s-0.1,0.4-0.2,0.6c-0.1,0.2-0.3,0.4-0.5,0.5c-0.2,0.1-0.4,0.2-0.6,0.2l1.4,0.8l-0.4,0.7L114.7,74.2z
		 M118,74.1c0.1-0.1,0.1-0.2,0.1-0.4c0-0.1,0-0.3,0-0.4c0-0.1-0.1-0.2-0.2-0.4c-0.1-0.1-0.2-0.2-0.4-0.3l0,0
		c-0.1-0.1-0.3-0.1-0.4-0.2c-0.1,0-0.3,0-0.4,0c-0.1,0-0.2,0.1-0.3,0.2c-0.1,0.1-0.2,0.2-0.3,0.3c-0.1,0.1-0.1,0.2-0.1,0.4
		c0,0.1,0,0.3,0,0.4c0,0.1,0.1,0.2,0.2,0.4c0.1,0.1,0.2,0.2,0.3,0.3l0,0c0.1,0.1,0.3,0.1,0.4,0.2c0.1,0,0.3,0,0.4,0
		c0.1,0,0.2-0.1,0.3-0.2C117.8,74.3,117.9,74.2,118,74.1"/>
</g>
</svg>
