<?xml version="1.0" encoding="utf-8"?>
<!-- Generator: Adobe Illustrator 23.0.1, SVG Export Plug-In . SVG Version: 6.00 Build 0)  -->
<svg version="1.1" id="Layer_1" xmlns="http://www.w3.org/2000/svg" xmlns:xlink="http://www.w3.org/1999/xlink" x="0px" y="0px"
	 viewBox="0 0 18.9 18.9" style="enable-background:new 0 0 18.9 18.9;" xml:space="preserve">
<style type="text/css">
	.st0{fill:#4D4D4D;}
</style>
<path class="st0" d="M18.2,18.2c-0.5,0.5-1.1,0.7-1.7,0.7c-0.6,0-1.2-0.2-1.7-0.7l-3.7-3.7c-1,0.5-2.2,0.8-3.5,0.8
	C3.4,15.3,0,11.9,0,7.7C0,3.4,3.4,0,7.7,0c4.2,0,7.7,3.4,7.7,7.7c0,1.3-0.3,2.4-0.8,3.5l3.7,3.7C19.1,15.8,19.1,17.3,18.2,18.2
	 M7.7,11.8c2.3,0,4.1-1.8,4.1-4.1c0-2.3-1.8-4.1-4.1-4.1c-2.3,0-4.1,1.9-4.1,4.1C3.5,10,5.4,11.8,7.7,11.8"/>
</svg>
