<?xml version="1.0" encoding="utf-8"?>
<!-- Generator: Adobe Illustrator 23.0.1, SVG Export Plug-In . SVG Version: 6.00 Build 0)  -->
<svg version="1.1" id="Layer_1" xmlns="http://www.w3.org/2000/svg" xmlns:xlink="http://www.w3.org/1999/xlink" x="0px" y="0px"
	 viewBox="0 0 30.7 24.9" style="enable-background:new 0 0 30.7 24.9;" xml:space="preserve">
<style type="text/css">
	.st0{fill:#FFFFFF;}
</style>
<path class="st0" d="M27.5,6.2c0.4,8.8-6.2,18.7-17.9,18.7c-3.6,0-6.9-1-9.6-2.8c3.3,0.4,6.7-0.5,9.3-2.6c-2.8-0.1-5.1-1.9-5.9-4.4
	c1,0.2,2,0.1,2.8-0.1c-3-0.6-5.1-3.3-5-6.2c0.8,0.5,1.8,0.8,2.8,0.8C1.3,7.7,0.5,4,2.1,1.2c3.1,3.8,7.7,6.3,13,6.6
	C14.2,3.8,17.2,0,21.2,0c1.8,0,3.4,0.8,4.6,2c1.4-0.3,2.8-0.8,4-1.5c-0.5,1.5-1.5,2.7-2.8,3.5c1.3-0.2,2.5-0.5,3.6-1
	C29.8,4.2,28.7,5.3,27.5,6.2"/>
</svg>
