<?xml version="1.0" encoding="utf-8"?>
<!-- Generator: Adobe Illustrator 23.0.1, SVG Export Plug-In . SVG Version: 6.00 Build 0)  -->
<svg version="1.1" id="Layer_1" xmlns="http://www.w3.org/2000/svg" xmlns:xlink="http://www.w3.org/1999/xlink" x="0px" y="0px"
	 viewBox="0 0 33.7 27.4" style="enable-background:new 0 0 33.7 27.4;" xml:space="preserve">
<style type="text/css">
	.st0{clip-path:url(#SVGID_1_);fill:#FFFFFF;}
</style>
<g>
	<defs>
		<rect id="SVGID_3_" width="33.7" height="27.4"/>
	</defs>
	<clipPath id="SVGID_1_">
		<use xlink:href="#SVGID_3_"  style="overflow:visible;"/>
	</clipPath>
	<path class="st0" d="M32.2,2.6c-0.9-1.9-1.9-2.3-3.9-2.4C26.3,0.1,21.2,0,16.8,0C12.4,0,7.4,0.1,5.4,0.2c-2,0.1-3,0.5-3.9,2.4
		C0.5,4.6,0,7.9,0,13.7v0v0v0c0,5.8,0.5,9.1,1.4,11c0.9,1.9,1.9,2.3,3.9,2.4c2,0.1,7.1,0.2,11.5,0.2c4.4,0,9.5-0.1,11.5-0.2
		c2-0.2,3-0.5,3.9-2.4c0.9-1.9,1.4-5.2,1.4-11v0v0C33.7,7.9,33.2,4.6,32.2,2.6 M12.6,21.2v-15l10.5,7.5L12.6,21.2z"/>
</g>
</svg>
